<mxfile modified="2022-05-12T19:32:42.964Z" host="app.diagrams.net" agent="5.0 (X11; Linux x86_64) AppleWebKit/537.36 (KHTML, like Gecko) Chrome/101.0.4951.54 Safari/537.36" etag="FNCKxJ35mBKAI1xIXdwv" version="18.0.3" type="github">
  <diagram id="f106602c-feb2-e66a-4537-3a34d633f6aa" name="Page-1">
    <mxGraphModel dx="2062" dy="960" grid="1" gridSize="10" guides="1" tooltips="1" connect="1" arrows="1" fold="1" page="1" pageScale="1" pageWidth="1169" pageHeight="827" background="none" math="0" shadow="0">
      <root>
        <mxCell id="0" />
        <mxCell id="1" parent="0" />
        <mxCell id="14" value="&lt;b&gt;API Server&amp;nbsp;&lt;/b&gt;" style="fillColor=#F6F6F6;strokeColor=none;shadow=0;gradientColor=none;fontSize=14;align=left;spacing=10;fontColor=#717171;9E9E9E;verticalAlign=top;spacingTop=-4;fontStyle=0;spacingLeft=40;html=1;" parent="1" vertex="1">
          <mxGeometry x="620" y="80" width="330" height="830" as="geometry" />
        </mxCell>
        <mxCell id="NTQgwEyuaVes2y7K-TFk-1002" value="" style="shape=image;imageAspect=0;aspect=fixed;verticalLabelPosition=bottom;verticalAlign=top;image=data:image/svg+xml,PHN2ZyB4bWxuczpkYz0iaHR0cDovL3B1cmwub3JnL2RjL2VsZW1lbnRzLzEuMS8iIHhtbG5zOmNjPSJodHRwOi8vY3JlYXRpdmVjb21tb25zLm9yZy9ucyMiIHhtbG5zOnJkZj0iaHR0cDovL3d3dy53My5vcmcvMTk5OS8wMi8yMi1yZGYtc3ludGF4LW5zIyIgeG1sbnM6c3ZnPSJodHRwOi8vd3d3LnczLm9yZy8yMDAwL3N2ZyIgeG1sbnM9Imh0dHA6Ly93d3cudzMub3JnLzIwMDAvc3ZnIiBpZD0ic3ZnOCIgdmVyc2lvbj0iMS4xIiB2aWV3Qm94PSIwIDAgMjY0LjU4MzMzIDI1NS41ODc1MSIgaGVpZ2h0PSI5NjYiIHdpZHRoPSIxMDAwIj4mI3hhOyAgPGRlZnMgaWQ9ImRlZnMyIj4mI3hhOyAgICA8cGF0dGVybiBpZD0iRU1GaGJhc2VwYXR0ZXJuIiBwYXR0ZXJuVW5pdHM9InVzZXJTcGFjZU9uVXNlIiB3aWR0aD0iNiIgaGVpZ2h0PSI2IiB4PSIwIiB5PSIwIi8+JiN4YTsgIDwvZGVmcz4mI3hhOyAgJiN4YTsgIDxnIHRyYW5zZm9ybT0idHJhbnNsYXRlKDAsLTQxLjQxMjQ4NykiIGlkPSJsYXllcjEiPiYjeGE7ICAgIDxwYXRoIHN0eWxlPSJmaWxsOiNlMDIzNGU7ZmlsbC1vcGFjaXR5OjE7ZmlsbC1ydWxlOmV2ZW5vZGQ7c3Ryb2tlOm5vbmU7c3Ryb2tlLXdpZHRoOjAuODA3NzUwNTgiIGQ9Im0gMTUzLjMzODQ1LDQ1LjY1MjQ4MSBjIC0xLjgwOTM0LDAgLTMuNDg5NDQsMC4zODc3MjkgLTUuMDQwMzIsMC45MDQ2NzMgMy4yOTU1OCwyLjE5NzA2IDUuMTA0OTMsNS4xMDQ5NjEgNi4wMDk2Myw4LjQwMDU1MSAwLjA2NDgsMC40NTIzMyAwLjE5Mzg2LDAuNzc1NDQ0IDAuMjU4NTYsMS4yMjc3NTkgMC4wNjQ4LDAuMzg3NzI5IDAuMTI5MTYsMC43NzU0NDQgMC4xMjkxNiwxLjE2MzE3MSAwLjI1ODYsNS42ODY1MDkgLTEuNDg2MjgsNi4zOTczMjMgLTIuNzE0MDMsOS43NTc1NDMgLTEuODczOTgsNC4zMjk1MjkgLTEuMzU3MDQsOC45ODIxMzMgMC45MDQ2NiwxMi43MzAwNzkgMC4xOTM4NywwLjQ1MjMxOCAwLjQ1MjM0LDAuOTY5Mjc1IDAuNzc1NDYsMS40MjE2MTggLTIuNDU1NTgsLTE2LjM0ODc1OSAxMS4xNzkxOSwtMTguODA0MzA0IDEzLjY5OTMyLC0yMy45MDkyNCAwLjE5Mzg2LC00LjQ1ODc2MSAtMy40ODk0NCwtNy40MzEyNjMgLTYuMzk3MzEsLTkuNDk5MDkyIC0yLjc3ODY0LC0xLjY4MDEwNCAtNS4yOTg4NCwtMi4xOTcwNjIgLTcuNjI1MTMsLTIuMTk3MDYyIHogbSAyMC41NDkwMywzLjY4MzMxOCBjIC0wLjI1ODU4LDEuNDg2MjQ3IC0wLjA2NDcsMS4wOTg1MyAtMC4xMjkxMywxLjg3Mzk3MyAtMC4wNjQ3LDAuNTE2OTQ1IC0wLjA2NDcsMS4xNjMxNTcgLTAuMTI5MTQsMS42ODAxMDIgLTAuMTI5MTQsMC41MTY5NTkgLTAuMjU4NiwxLjAzMzkwNCAtMC40NTIzNiwxLjU1MDg4NiAtMC4xMjkxMywwLjUxNjk0NSAtMC4zMjMwOSwxLjAzMzkwMyAtMC41MTY5NCwxLjU1MDg0NyAtMC4yNTg2LDAuNTE2OTgzIC0wLjQ1MjM0LDAuOTY5MzAxIC0wLjcxMDgyLDEuNDg2MjU4IC0wLjE5Mzg1LDAuMjU4NTg1IC0wLjMyMzA5LDAuNTE2OTQ1IC0wLjUxNjk1LDAuNzc1NDQzIC0wLjEyOTE0LDAuMTkzODU3IC0wLjI1ODU4LDAuMzg3NzE1IC0wLjM4NzcxLDAuNTgxNTcyIC0wLjMyMzA5LDAuNDUyMzU1IC0wLjY0NjIxLDAuOTA0NjczIC0wLjk2OTI5LDEuMjkyMzg3IC0wLjM4Nzc0LDAuMzg3NzI5IC0wLjcxMDgzLDAuODQwMDQ2IC0xLjE2MzE5LDEuMTYzMTcxIDAsMC4wNjQ3IDAsMC4wNjQ3IDAsMC4wNjQ3IC0wLjM4NzcxLDAuMzIzMSAtMC43NzU0MywwLjcxMDgxNSAtMS4yMjc3NSwxLjAzMzkwMyAtMS4zNTcwMiwxLjAzMzkwMiAtMi45MDc4NywxLjgwOTM0NCAtNC4zMjk1MiwyLjc3ODY0NCAtMC40NTIzMSwwLjMyMzA4OCAtMC45MDQ2OCwwLjU4MTU4NyAtMS4yOTIzOCwwLjk2OTMgLTAuNDUyMzMsMC4zMjMwODggLTAuODQwMDYsMC42NDYxNzYgLTEuMjI3NzYsMS4wMzM5MDMgLTAuNDUyMzYsMC4zODc3MTUgLTAuNzc1NDUsMC43NzU0NDIgLTEuMTYzMTgsMS4yMjc3ODQgLTAuMzIzMDksMC4zODc3MjggLTAuNzEwOCwwLjg0MDA0OCAtMC45NjkyNywxLjI5MjQwMiAtMC4zMjMxMiwwLjQ1MjMxNyAtMC42NDYyLDAuOTA0NjYxIC0wLjkwNDcsMS4zNTY5OSAtMC4yNTg1NywwLjUxNjk0NCAtMC40NTIzMywwLjk2OTI5OSAtMC43MTA4MSwxLjQ4NjI0NSAtMC4xOTM4NSwwLjUxNjk0NCAtMC4zODc3MywwLjk2OTMwMSAtMC41MTY5NSwxLjQ4NjI0NCAtMC4xOTM4NiwwLjU4MTU4NiAtMC4zMjMxLDEuMDk4NTQ0IC0wLjQ1MjM0LDEuNjE1NTE0IC0wLjA2NDcsMC4yNTg1ODMgLTAuMDY0NywwLjU4MTU2IC0wLjEyOTE0LDAuODQwMDQ1IC0wLjA2NDgsMC4yNTg1ODQgLTAuMDY0OCwwLjUxNjk0NSAtMC4xMjkxMywwLjc3NTQ0MyAwLDAuNTE2OTQ0IC0wLjA2NDcsMS4wOTg1MyAtMC4wNjQ3LDEuNjE1NDc1IDAsMC4zODc3MjcgMCwwLjc3NTQ0MSAwLjA2NDcsMS4xNjMxNjkgMCwwLjUxNjk0NiAwLjA2NDcsMS4wMzM4OTIgMC4xOTM4NSwxLjYxNTQ3NiAwLjA2NDcsMC41MTY5NDQgMC4xOTM4NCwxLjAzMzkwMiAwLjMyMzEyLDEuNTUwODg1IDAuMTkzODYsMC41MTY5NDQgMC4zMjMxLDEuMDMzOTAyIDAuNTE2OTQsMS41NTA4NDcgMC4xMjkxNiwwLjMyMzEyNiAwLjMyMzA5LDAuNjQ2MjEzIDAuNDUyMzYsMC45MDQ2NzMgbCAtMTQuODYyNTIsLTUuNzUxMTQgYyAtMi41MjAxOCwtMC43MTA4MTUgLTQuOTc1NywtMS4zNTY5OSAtNy40OTU4OCwtMS45Mzg1NzYgLTEuMzU3LC0wLjMyMzA4NyAtMi43MTQsLTAuNjQ2MTk4IC00LjA3MTAyLC0wLjk2OTI5OSAtMy44NzcxOSwtMC43NzU0MyAtNy44MTg5NSwtMS4zNTY5OTEgLTExLjc2MDc2LC0xLjc0NDcwNSAtMC4xMjkxMywwIC0wLjE5Mzg1LC0wLjA2NDcxIC0wLjMyMzA5LC0wLjA2NDcxIC0zLjg3NzIsLTAuMzg3NzE0IC03LjY4OTczLC0wLjU4MTU3MiAtMTEuNTY2OSwtMC41ODE1NzIgLTIuODQzMjgsMCAtNS42ODY1NiwwLjEyOTEzMSAtOC40NjUyMDEsMC4zMjMwODggLTMuOTQxNzk4LDAuMjU4NTg0IC03Ljg4MzYwMiwwLjc3NTQ0MiAtMTEuODI1MzczLDEuNDIxNjE3IC0wLjk2OTMwMiwwLjEyOTE0NCAtMS45Mzg2MDIsMC4zMjMxMjUgLTIuOTA3OTA1LDAuNTE2OTg0IC0yLjAwMzE5OSwwLjM4NzY4OSAtMy45NDE3NzEsMC44NDAwNDQgLTUuODE1NzQyLDEuMjkyMzg2IC0wLjk2OTMsMC4yNTg1ODQgLTEuOTM4NjAyLDAuNTE2OTU4IC0yLjkwNzkwMywwLjc3NTQxOSAtMC45NjkyNywwLjM4NzcxMyAtMS44NzM5NCwwLjg0MDA3IC0yLjc3ODY0MiwxLjIyNzc4NCAtMC43MTA4MTEsMC4zMjMwODggLTEuNDIxNjE5LDAuNjQ2MTg3IC0yLjEzMjQzMSwwLjk2OTMgLTAuMTI5MTM5LDAuMDY0NzEgLTAuMjU4NTgsMC4wNjQ3MSAtMC4zMjMwOSwwLjEyOTE0NCAtMC42NDYyMSwwLjMyMzA4NyAtMS4yMjc3OSwwLjU4MTU0NyAtMS44MDkzNDEsMC45MDQ2NzEgLTAuMTkzODYxLDAuMDY0NzEgLTAuMzIzMTIyLDAuMTI5MTMyIC0wLjQ1MjM1MSwwLjE5Mzg1OSAtMC43MTA4MSwwLjMyMzA4OSAtMS40MjE2MTgsMC43MTA4MDMgLTIuMDAzMjAxLDEuMDMzOTAyIC0wLjQ1MjM1LDAuMTkzODU4IC0wLjkwNDY3LDAuNDUyMzQzIC0xLjI5MjM4OSwwLjY0NjIxMyAtMC4xOTM4NjIsMC4xMjkxMzEgLTAuNDUyMzUzLDAuMjU4NTcyIC0wLjU4MTU4MiwwLjMyMzA4OCAtMC41ODE1NzksMC4zMjMwODggLTEuMTYzMTYsMC42NDYxNzQgLTEuNjgwMTExLDAuOTY5MyAtMC41ODE1ODEsMC4zMjMwODcgLTEuMDk4NTMyLDAuNjQ2MTc1IC0xLjU1MDg4MiwwLjk2OTI2MyAtMC40NTIzMTgsMC4zMjMxMjUgLTAuOTA0NjY3LDAuNTgxNTg1IC0xLjI5MjM5LDAuOTA0NjcyIC0wLjA2NDc0LDAuMDY0NzEgLTAuMTI5MTM5LDAuMDY0NzEgLTAuMTkzODYxLDAuMTI5MTQ1IC0wLjM4NzcxOSwwLjI1ODU4MyAtMC44NDAwMzksMC41ODE1NzEgLTEuMjI3NzU4LDAuOTA0Njk2IDAsMCAtMC4wNjQ3MywwLjA2NDcgLTAuMTI5MTQsMC4xMjkxNDIgLTAuMzIzMDksMC4yNTg1ODQgLTAuNjQ2MjEyLDAuNTE2OTQ3IC0wLjk2OTMwMSwwLjc3NTQwNyAtMC4xMjkxMzgsMC4wNjQ3MSAtMC4yNTg1ODEsMC4xOTM4NTcgLTAuMzg3NzIsMC4yNTg1ODMgLTAuMzIzMDksMC4yNTg1ODYgLTAuNjQ2MTgsMC41ODE1ODYgLTAuOTY5MjcxLDAuODQwMDcgLTAuMDY0NzMsMC4xMjkxNDMgLTAuMTkzODU5LDAuMTkzODU4IC0wLjI1ODU4MSwwLjI1ODU4NSAtMC4zODc3MiwwLjM4NzcxNSAtMC43NzU0NDEsMC43MTA4MDIgLTEuMTYzMTYxLDEuMDk4NTMgLTAuMDY0NzMsMCAtMC4wNjQ3MywwLjA2NDcxIC0wLjEyOTEzOSwwLjEyOTEzMSAtMC4zODc3MiwwLjMyMzEgLTAuNzc1NDM5LDAuNzEwODE2IC0xLjE2MzE1OSwxLjA5ODU0MyAtMC4wNjQ3MywwLjA2NDcxIC0wLjA2NDczLDAuMTI5MTMgLTAuMTI5MTQsMC4xMjkxMyAtMC4zMjMwOSwwLjMyMzA4OSAtMC42NDYxOCwwLjY0NjIxMyAtMC45NjkzMDEsMS4wMzM5MDIgLTAuMTI5MTM3LDAuMTI5MTQzIC0wLjMyMzA5LDAuMjU4NTg2IC0wLjQ1MjMxOSwwLjM4NzcxNSAtMC4zMjMwOSwwLjM4NzcyOCAtMC43MTA4MTEsMC43NzU0NDMgLTEuMDk4NTMsMS4xNjMxNzEgLTAuMDY0NzMsMC4xMjkxMzIgLTAuMTkzODYsMC4xOTM4NTggLTAuMjU4NTgyLDAuMzIzMDg3IC0wLjUxNjk1MiwwLjUxNjk4MyAtMC45NjkzMDIsMS4wMzM5MjggLTEuNDg2MjUyLDEuNTUwODg1IC0wLjA2NDczLDAuMDY0NzEgLTAuMTI5MTM4LDAuMTI5MTI4IC0wLjE5Mzg1OSwwLjE5Mzg1OCAtMS4wMzM5MzEsMS4wOTg1MjkgLTIuMTMyNDYzLDIuMTk3MDU5IC0zLjI5NTU5NCwzLjE2NjM1MiAtMS4xNjMxNTksMS4wMzM5IC0yLjM5MDkyMiwyLjAwMzIgLTMuNjE4NzExLDIuODQzMjUgLTEuMjkyMzkyLDAuOTA0NyAtMi41MjAxNTIsMS42ODAxMSAtMy44NzcxNzMsMi40NTU1NSAtMS4yOTIzOTIsMC43MTA3OSAtMi42NDk0MTIsMS4zNTcwMSAtNC4wNzEwMzIsMS45Mzg2IC0xLjM1NzAyMiwwLjU4MTU3IC0yLjc3ODY0MSwxLjA5ODU0IC00LjIwMDI2NCwxLjU1MDg1IC0yLjcxNDA0MSwwLjU4MTU3IC01LjQ5MjY4NCwxLjY4MDExIC03Ljg4MzYwNSwxLjg3Mzk3IC0wLjUxNjk1LDAgLTEuMDk4NTMxLDAuMTI5MTUgLTEuNjE1NDgyLDAuMTkzODUgLTAuNTgxNTc4LDAuMTI5MTQgLTEuMDk4NTI5LDAuMjU4NTkgLTEuNjE1NDc5LDAuMzg3NzQgLTAuNTE2OTUxLDAuMTkzODQgLTEuMDMzOTMxLDAuMzg3NzEgLTEuNTUwODgzLDAuNTgxNTYgLTAuNTE2OTUxLDAuMTkzODYgLTEuMDMzOTAxLDAuNDUyMzUgLTEuNTUwODUyLDAuNzEwODMgLTAuNDUyMzUsMC4zMjMwOCAtMC45NjkyOTksMC41ODE1NyAtMS40MjE2NTEsMC45MDQ2NiAtMC40NTIzMjIsMC4zMjMwOSAtMC45MDQ2NzIsMC43MTA4IC0xLjI5MjM5MywxLjA5ODUzIC0wLjQ1MjMxOSwwLjMyMzEyIC0wLjkwNDY2OSwwLjc3NTQ1IC0xLjI5MjM5LDEuMTYzMTUgLTAuMzg3NzIxLDAuNDUyMzcgLTAuNzc1NDQsMC44NDAwOCAtMS4wOTg1MzA0LDEuMjkyMzkgLTAuMzIzMDkwMSwwLjUxNjk1IC0wLjcxMDgxMDgsMC45NjkzMSAtMC45NjkzMDE2LDEuNDg2MjcgLTAuMzIzMDksMC40NTIzNSAtMC42NDYxNzk5LDAuOTY5MjkgLTAuOTA0NjcwNywxLjQ4NjIyIC0wLjI1ODU4MTUsMC41ODE2MSAtMC41MTY5NDk4LDEuMDk4NTUgLTAuNzEwODEwNywxLjY4MDE0IC0wLjE5Mzg1OTksMC41MTY5NSAtMC4zODc3MTk5LDEuMDk4NTIgLTAuNTgxNTc5OSwxLjY4MDExIC0wLjEyOTEzODIsMC41MTY5NCAtMC4yNTg1ODEzLDEuMDMzOSAtMC4zMjMwODk4LDEuNTUwODMgMCwwLjA2NDggLTAuMDY0NzE5LDAuMTI5MTYgLTAuMDY0NzE5LDAuMTkzODcgLTAuMTI5MTM5MiwwLjU4MTYxIC0wLjEyOTEzOTIsMS4zNTcwNiAtMC4xOTM4NjA4LDEuNzQ0NzkgLTAuMDY0NzE5LDAuNDUyMzIgLTAuMTI5MTM3MywwLjg0MDAyIC0wLjEyOTEzNzMsMS4yOTIzOCAwLDAuMjU4NTggMCwwLjU4MTU1IDAuMDY0NzE5LDAuODQwMDMgMC4wNjQ3MTksMC40NTIzNiAwLjEyOTEzNzEsMC44NDAwNyAwLjI1ODU4MTQsMS4yMjc4MiAwLjEyOTEzODIsMC4zODc2NiAwLjI1ODU4MTUsMC43NzUzOSAwLjQ1MjMyMDEsMS4xNjMxMiAwLDAuMDY0NyAwLDAuMDY0NyAwLDAuMDY0NyAwLjE5Mzg1OTksMC4zODc3NSAwLjQ1MjM1MDYsMC43NzU0NSAwLjcxMDgxMDgsMS4xNjMxNyAwLjI1ODU4MTQsMC4zODc3MiAwLjUxNjk4MDQsMC43NzU0NCAwLjg0MDA3MDQsMS4xNjMxNyAwLjMyMzA4OTksMC4zMjMwOSAwLjcxMDgxMDksMC43MTA3OCAxLjA5ODUzMDQsMS4wMzM4OSAwLjM4NzcyMDksMC4zODc3MiAwLjc3NTQ0MjEsMC43MTA4MSAxLjIyNzc2MTEsMS4wMzM5IDEuNTUwODgxLDEuMzU3MDMgMS45Mzg2MDEsMS44MDkzOCAzLjk0MTgwNiwyLjg0MzI3IDAuMzIzMDg3LDAuMTkzODcgMC42NDYyMSwwLjMyMzExIDEuMDMzOTMsMC41MTY5NyAwLjA2NDczLDAgMC4xMjkxMzksMC4wNjQ3IDAuMTkzODU5LDAuMDY0NyAwLDAuMTI5MTMgMCwwLjE5Mzg3IDAuMDY0NzMsMC4zMjMxMyAwLjA2NDcyLDAuNTE2OTYgMC4xOTM4NTksMS4wMzM4OSAwLjMyMzA5LDEuNTUwODYgMC4xMjkxMzgsMC41ODE1OCAwLjMyMzEyMSwxLjA5ODU1IDAuNTE2OTgxLDEuNTUwODcgMC4xOTM4NiwwLjM4NzczIDAuMzIzMDksMC43NzU0MyAwLjUxNjk1MSwxLjE2MzE3IDAuMDY0NzIsMC4xMjkxNSAwLjEyOTE0LDAuMjU4NTggMC4xOTM4NiwwLjMyMzA5IDAuMjU4NTgxLDAuNTE2OTQgMC41MTY5NSwwLjk2OTMyIDAuNzc1NDEsMS40MjE2MiAwLjMyMzEyMSwwLjQ1MjMzIDAuNjQ2MjEsMC45MDQ2NiAwLjk2OTI5OSwxLjM1NzAzIDAuMzIzMDkyLDAuMzg3NyAwLjcxMDgxMywwLjg0MDA0IDEuMDk4NTMyLDEuMjI3NzUgMC4zODc3MjEsMC4zODc3MyAwLjc3NTQ0MiwwLjcxMDgzIDEuMjI3NzkzLDEuMDk4NTIgMCwwIDAuMDY0NzMsMC4wNjQ4IDAuMTI5MTM3LDAuMDY0OCAwLjM4NzcyMiwwLjMyMzEyIDAuNzc1NDQsMC42NDYyMiAxLjE2MzE2MiwwLjkwNDY2IDAuNDUyMzIsMC4zMjMxMSAwLjkwNDY3LDAuNTgxNTcgMS40MjE2MTksMC44NDAwNyAwLjQ1MjM1MSwwLjI1ODU4IDAuOTY5MzAyLDAuNTE2OTUgMS40ODYyNTIsMC43MTA4MiAwLjM4NzcyMSwwLjE5Mzg2IDAuODQwMDQsMC4zMjMxMSAxLjI5MjM5MiwwLjQ1MjM0IDAuMDY0NzMsMC4wNjQ4IDAuMTI5MTM4LDAuMDY0OCAwLjI1ODU4MiwwLjEyOTE2IDAuMjU4NTgxLDAuMDY0OCAwLjU4MTU0OCwwLjEyOTEyIDAuODQwMDM5LDAuMTkzODQgLTAuMTkzODU5LDMuNDg5NDUgLTAuMjU4NTgyLDYuNzg1MDQgMC4yNTg1ODMsNy45NDgyMiAwLjU4MTU1LDEuMjkyMzggMy40MjQ4MjEsLTIuNjQ5NDEgNi4yNjgwOTQsLTcuMTcyNzcgLTAuMzg3NzE5LDQuNDU4NzUgLTAuNjQ2MjExLDkuNjkyOSAwLDExLjI0MzgxIDAuNzEwODA5LDEuNjE1NDUgNC41ODc5ODIsLTMuNDI0ODcgNy45NDgyMDMsLTguOTgyMTUgNDUuODE1MjYyLC0xMC41OTc1NyA4Ny42MjQxOCwyMS4wNjYgOTIuMDE4MjksNjUuNzgyNzMgLTAuODQwMDYsLTYuOTc4OTIgLTkuNDM0NDYsLTEwLjg1NjA4IC0xMy4zNzYyMywtOS44ODY3NyAtMS45Mzg2MSw0Ljc4MTgzIC01LjIzNDIsMTAuOTIwNjggLTEwLjUzMjk5LDE0LjczMzI0IDAuNDUyMzMsLTQuMjY0OSAwLjI1ODU2LC04LjY1OTAxIC0wLjY0NjE5LC0xMi45MjM5MiAtMS40MjE2NSw1Ljk0NTAxIC00LjIwMDMsMTEuNTAyMzIgLTguMDEyODcsMTYuMjg0MTUgdiAwIGMgLTYuMTM4ODU3LDAuNDUyMzIgLTEyLjI3NzcyOSwtMi41MjAxOSAtMTUuNTA4NzIsLTYuOTc4OTEgLTAuMjU4NTgyLC0wLjE5Mzg4IC0wLjMyMzA5MSwtMC41ODE1OSAtMC41MTY5NTEsLTAuODQwMDYgLTAuMTkzODYyLC0wLjQ1MjM4IC0wLjM4NzcxOSwtMC45MDQ2NyAtMC41MTY5NTEsLTEuMzU3MDMgLTAuMTkzODU5LC0wLjQ1MjMyIC0wLjMyMzA4OSwtMC45MDQ2NyAtMC4zODc3MTksLTEuMzU2OTkgLTAuMDY0NzMsLTAuNDUyMzYgLTAuMDY0NzMsLTAuOTA0NjkgLTAuMDY0NzMsLTEuNDIxNjMgMCwtMC4zMjMxMiAwLC0wLjY0NjIgMCwtMC45NjkyOCAwLjA2NDczLC0wLjQ1MjM4IDAuMTkzODYsLTAuOTA0NzEgMC4zMjMwOTEsLTEuMzU3MDUgMC4xMjkxMzgsLTAuNDUyMzIgMC4yNTg1OCwtMC45MDQ2NyAwLjQ1MjM1LC0xLjM1NzAxIDAuMjU4NTgyLC0wLjQ1MjMxIDAuNDUyMzIsLTAuOTA0NjYgMC43NzU0NDEsLTEuMzU2OTggMS4wOTg1MywtMy4xMDE3OCAxLjA5ODUzLC01LjYyMTkyIC0wLjkwNDY3LC03LjEwODE2IC0wLjM4NzcyMSwtMC4yNTg1OCAtMC43NzU0NDEsLTAuNDUyMzYgLTEuMjI3NzkxLC0wLjY0NjIyIC0wLjI1ODU4NCwtMC4wNjQ3IC0wLjU4MTU4MiwtMC4xOTM4NiAtMC44NDAwNCwtMC4yNTg1NyAtMC4xOTM4NjEsLTAuMDY0NyAtMC4zMjMwOSwtMC4xMjkxNiAtMC41MTY5NTEsLTAuMTkzODcgLTAuNDUyMzUxLC0wLjEyOTE0IC0wLjkwNDcwMiwtMC4yNTg1OSAtMS4zNTcwMjIsLTAuMzIzMDkgLTAuNDUyMzUsLTAuMTI5MTMgLTAuOTA0NjcsLTAuMTkzODYgLTEuMzU3MDIsLTAuMTkzODYgLTAuNDUyMzIxLC0wLjA2NDggLTAuOTY5MzAzLC0wLjEyOTE0IC0xLjQyMTYyMiwtMC4xMjkxNCAtMC4zMjMwODksMCAtMC42NDYyMSwwLjA2NDcgLTAuOTY5MzAxLDAuMDY0NyAtMC41MTY5NDksMCAtMC45NjkyOTksMC4wNjQ4IC0xLjQyMTYyMSwwLjE5Mzg2IC0wLjQ1MjM1LDAuMDY0OCAtMC45MDQ2NjksMC4xMjkxMyAtMS4zNTcwMTksMC4yNTg1NiAtMC40NTIzMjIsMC4xMjkxNSAtMC45MDQ2NzMsMC4yNTg1OSAtMS4zNTcwMjMsMC40NTIzOCAtMC40NTIzMTksMC4xOTM4NSAtMC44NDAwNDEsMC4zODc3MSAtMS4yOTIzODksMC41ODE1NyAtMC4zODc2OSwwLjE5Mzg3IC0wLjc3NTQxMiwwLjQ1MjMyIC0xLjIyNzc2MSwwLjY0NjE4IC0xNS4wNTYzNzEsOS44MjIxNyAtNi4wNzQyMzUsMzIuODI2NzQgNC4yMDAyNjQsMzkuNDgyNTYgLTMuODc3MTc1LDAuNzEwODEgLTcuODE4OTQ3LDEuNTUwOSAtOC45MTc0NzksMi4zOTA5MiAtMC4wNjQ3MywwLjA2NDcgLTAuMTI5MTM4LDAuMTI5MTUgLTAuMTI5MTM4LDAuMTI5MTUgMi43Nzg2NDIsMS42ODAwOSA1LjY4NjUxNiwzLjEwMTczIDguNzIzNjE2LDQuMzI5NDkgNC4xMzU2NjUsMS4zNTcwMiA4LjUyOTc4NiwyLjU4NDc5IDEwLjQ2ODM4NywzLjEwMTc2IDAsMCAwLDAuMDY0NyAwLDAuMDY0NyA1LjM2MzQyNCwxLjA5ODU0IDEwLjc5MTQ4LDEuNDg2MjYgMTYuMjg0MTM5LDEuMTYzMTcgMjguNjI2NDksLTIuMDAzMjEgNTIuMDgzNCwtMjMuNzgwMDMgNTYuMzQ4MywtNTIuNDcxMTEgMC4xMjkxNCwwLjU4MTU5IDAuMjU4NTgsMS4wOTg1MiAwLjM4NzcyLDEuNjgwMTIgdiAwIGMgMC4xOTM4NywxLjE2MzEyIDAuNDUyMzIsMi4zOTA5IDAuNTgxNTUsMy42MTg2NyAwLDAgMCwwIDAsMC4wNjQ4IDAuMTI5MTQsMC41ODE1OCAwLjE5Mzg2LDEuMTYzMTUgMC4yNTg1OCwxLjY4MDEgMCwwLjEyOTE0IDAsMC4xOTM4NiAwLDAuMjU4NTkgMC4wNjQ4LDAuNTgxNTcgMC4xMjkxNSwxLjE2MzE2IDAuMTI5MTUsMS42ODAxIDAuMDY0NywwLjcxMDgyIDAuMTI5MTQsMS40MjE2MiAwLjEyOTE0LDIuMTMyNDcgMCwwLjMyMzA5IDAsMC42NDYxOSAwLDEuMDMzOSAwLDAuMzIzMTIgMC4wNjQ3LDAuNzEwOCAwLjA2NDcsMS4wMzM5MiAwLDAuMzg3NzMgLTAuMDY0NywwLjc3NTQyIC0wLjA2NDcsMS4xNjMxNCAwLDAuMzIzMTMgMCwwLjY0NjIxIDAsMC45MDQ2NyAwLDAuNDUyMzYgLTAuMDY0OCwwLjg0MDA2IC0wLjA2NDgsMS4yOTI0IDAsMC4yNTg1NiAwLDAuNTE2OTYgLTAuMDY0NywwLjg0MDA2IDAsMC40NTIzNiAtMC4wNjQ3LDAuOTA0NjYgLTAuMDY0NywxLjQyMTYyIC0wLjA2NDgsMC4xOTM4NiAtMC4wNjQ4LDAuMzg3NzIgLTAuMDY0OCwwLjU4MTU5IC0wLjA2NDcsMC41MTY5NiAtMC4xMjkxNCwwLjk2OTMgLTAuMTkzODcsMS40ODYyNiAwLDAuMTkzODcgMCwwLjM4NzcxIC0wLjA2NDcsMC41ODE1OSAtMC4wNjQ4LDAuNjQ2MTcgLTAuMTkzODUsMS4yMjc3NyAtMC4yNTg1NSwxLjg3Mzk0IDAsMCAwLDAuMDY0OCAwLDAuMDY0OCB2IDAuMDY0NyBjIC0wLjEyOTE0LDAuNTgxNTcgLTAuMjU4NiwxLjIyNzc2IC0wLjM4Nzc1LDEuODA5MzMgMCwwLjA2NDcgMCwwLjEyOTE0IDAsMC4xOTM4NyAtMC4xMjkxMiwwLjU4MTU2IC0wLjI1ODU4LDEuMTYzMTYgLTAuMzg3NywxLjc0NDcxIDAsMC4wNjQ4IC0wLjA2NDcsMC4xOTM4NyAtMC4wNjQ3LDAuMjU4NTYgLTAuMTI5MTYsMC41ODE2IC0wLjI1ODYsMS4xNjMxNyAtMC40NTIzMiwxLjc0NDc4IDAsMC4wNjQ3IDAsMC4xMjkxMiAwLDAuMTkzODQgLTAuMTkzODYsMC42NDYxNyAtMC4zODc3MywxLjIyNzc2IC0wLjUxNjk4LDEuODA5MzQgLTAuMDY0NywwLjA2NDcgLTAuMDY0NywwLjEyOTE0IC0wLjA2NDcsMC4xMjkxNCAtMC4xOTM4NywwLjY0NjIxIC0wLjM4NzcxLDEuMjkyMzkgLTAuNTgxNTUsMS45Mzg1OCAtMC4yNTg1OCwwLjY0NjIxIC0wLjQ1MjM0LDEuMjI3NzggLTAuNzEwODEsMS44NzM5OCAtMC4yNTg1NywwLjY0NjIgLTAuNDUyMzYsMS4yOTI0IC0wLjcxMDgzLDEuODczOTYgLTAuMjU4NTksMC42NDYyMiAtMC41MTY5NywxLjIyNzggLTAuNzc1NDMsMS44NzM5NyAwLDAgLTAuMDY0OCwwIC0wLjA2NDgsMCAtMC4yNTg2LDAuNTgxNTcgLTAuNTE2OTksMS4yMjc3OSAtMC44NDAxLDEuODA5MzggMCwwIDAsMCAwLDAgMCwwIDAsMCAwLDAgLTAuMDY0NywwLjE5MzgzIC0wLjEyOTEyLDAuMzIzMDkgLTAuMTkzODQsMC40NTIzIC0wLjA2NDcsMC4wNjQ4IC0wLjA2NDcsMC4xMjkxNCAtMC4xMjkxNCwwLjE5Mzg4IC00LjIwMDI2LDguNDY1MTQgLTEwLjQwMzc3LDE1Ljg5NjM5IC0xOC4xNTgwOSwyMS43MTIxNyB2IDAgYyAtMC41MTY5NSwwLjMyMzA5IC0xLjAzMzkyLDAuNzEwODIgLTEuNTUwODYsMS4wOTg1MiAwLDAgMCwwIDAsMCAtMC4xMjkxNSwwLjEyOTE1IC0wLjMyMzEyLDAuMTkzODggLTAuNDUyMzUsMC4zMjMwOSAtMC40NTIzNSwwLjMyMzEgLTAuOTA0NjgsMC42NDYxOCAtMS40MjE2MSwwLjk2OTMxIGwgMC4xOTM4NSwwLjM4NzcyIGggMC4wNjQ3IHYgMCBjIDAuOTA0NjYsLTAuMTI5MTMgMS44MDkzNCwtMC4yNTg1OCAyLjcxNDAyLC0wLjM4NzcyIGggMC4wNjQ3IGMgMS42ODAxMiwtMC4yNTg1OCAzLjM2MDIzLC0wLjU4MTU4IDUuMDQwMzUsLTAuOTA0NjcgMC40NTIzMSwtMC4wNjQ4IDAuOTY5MywtMC4xOTM4NSAxLjQyMTYxLC0wLjMyMzEyIDAuMzIzMDksLTAuMDY0OCAwLjU4MTU4LC0wLjEyOTEzIDAuOTA0NjcsLTAuMTkzODYgMC40NTIzNSwtMC4wNjQ4IDAuOTA0NjgsLTAuMTkzODYgMS4zNTcwNCwtMC4yNTg1NyAwLjM4NzcsLTAuMTI5MTQgMC43NzU0MywtMC4xOTM4OCAxLjE2MzE0LC0wLjMyMzEgNi40NjE5NSwtMS41NTA4OSAxMi43MzAwNywtMy42ODMzNSAxOC43Mzk2NSwtNi4yMDM0OSAtMTAuMjc0NDgsMTQuMDIyNDMgLTI0LjAzODQ3LDI1LjMzMDg3IC00MC4xMjg3NCwzMi43NjIxMiA3LjQzMTI3LC0wLjUxNjk2IDE0Ljg2MjUxLC0xLjc0NDcyIDIyLjAzNTI4LC0zLjgxMjU0IDI2LjA0MTcsLTcuNjg5NzcgNDcuOTQ3NzIsLTI1LjIwMTY1IDYxLjA2NTQ5LC00OC43ODc4IC0yLjY0OTQsMTQuOTI3MTQgLTguNTk0NCwyOS4xNDM0NCAtMTcuMzgyNjUsNDEuNTUwNDEgNi4yNjgwOSwtNC4xMzU2OSAxMi4wMTkyMywtOC45MTc1MyAxNy4yNTM0MiwtMTQuMzQ1NTcgMTQuNDc0NzgsLTE1LjEyMDk3IDIzLjk3Mzg4LC0zNC4zMTI5NiAyNy4yMDQ4MywtNTQuOTI2NjUgMi4xOTcwOCwxMC4yMDk5IDIuODQzMjgsMjAuNzQyOTMgMS44NzM5OCwzMS4xNDY2NiA0Ni42NTUzNCwtNjUuMDcxOTIgMy44NzcxNywtMTMyLjUzNDc2IC0xNC4wMjI0NCwtMTUwLjMwNTE0MSAtMC4wNjQ4LC0wLjEyOTEzMyAtMC4xMjkxNCwtMC4xOTM4NTggLTAuMTI5MTQsLTAuMzIzMDg5IC0wLjA2NDgsMC4wNjQ3IC0wLjA2NDgsMC4wNjQ3IC0wLjA2NDgsMC4xMjkxNDQgMCwtMC4wNjQ3MSAwLC0wLjA2NDcxIC0wLjA2NDcsLTAuMTI5MTQ0IDAsMC43NzU0NDIgLTAuMDY0NywxLjU1MDg0OCAtMC4xMjkxNCwyLjMyNjI5MSAtMC4xOTM4NywxLjQ4NjI1IC0wLjM4NzcxLDIuOTA3ODc5IC0wLjY0NjIxLDQuMzI5NTI5IC0wLjMyMzA4LDEuNDIxNjIgLTAuNzEwODEsMi44NDMyMiAtMS4wOTg1NCw0LjI2NDg4IC0wLjQ1MjMyLDEuMzU2OTkgLTAuOTY5MjUsMi43Nzg2MiAtMS41NTA4NSw0LjEzNTY1IC0wLjU4MTU4LDEuMjkyMzcgLTEuMjI3NzgsMi42NDkzOSAtMS45Mzg1OSwzLjk0MTggLTAuNzEwODIsMS4yMjc3OCAtMS40ODYyNSwyLjUyMDE2IC0yLjMyNjI5LDMuNjgzMyAtMC44NDAwNiwxLjIyNzggLTEuNzQ0NzQsMi4zOTA5MyAtMi42NDk0MywzLjQ4OTQ0IC0wLjk2OTMxLDEuMTYzMTggLTIuMDAzMTksMi4xOTcxIC0zLjAzNzEyLDMuMjMxMDEgLTAuNjQ2MTgsMC41ODE1OCAtMS4yMjc3NSwxLjA5ODUzIC0xLjg3Mzk4LDEuNjE1NDYgLTAuNTE2OTQsMC40NTIzNiAtMC45NjkyNywwLjg0MDA5IC0xLjQ4NjI1LDEuMjkyMzkgLTEuMTYzMTQsMC45MDQ2OCAtMi4zMjYyOSwxLjc0NDc0IC0zLjYxODY3LDIuNTIwMTkgLTEuMjI3NzgsMC43NzU0MiAtMi41MjAxNCwxLjU1MDg2IC0zLjgxMjU0LDIuMTk3MDcgLTEuMzU3MDIsMC42NDYxOSAtMi43MTQwNCwxLjIyNzc2IC00LjA3MTA0LDEuODA5MzUgLTEuMzU3MDIsMC41MTY5MyAtMi43Nzg2NCwwLjk2OTI4IC00LjIwMDMxLDEuMzU3MDEgLTEuNDIxNjEsMC4zODc3IC0yLjkwNzg1LDAuNzEwODEgLTQuMzI5NDksMC45NjkyOCAtMS40ODYyMywwLjI1ODU4IC0yLjk3MjQ5LDAuMzg3NzEgLTQuMzk0MTIsMC41MTY5NyAtMS4wMzM5MiwwLjA2NDcgLTIuMDY3ODIsMC4xMjkxNSAtMy4xMDE3NSwwLjEyOTE1IC0xLjQ4NjI2LDAgLTIuOTcyNDgsLTAuMTI5MTUgLTQuMzk0MTIsLTAuMjU4NTggLTEuNDg2MjQsLTAuMTI5MTQgLTIuOTcyNTEsLTAuMzIzMTQgLTQuMzk0MTMsLTAuNjQ2MjMgLTEuNDg2MjUsLTAuMjU4NTggLTIuOTA3OSwtMC42NDYyMSAtNC4zMjk1MywtMS4wOTg1MSBoIC0wLjA2NDcgYyAxLjQyMTYzLC0wLjEyOTE0IDIuODQzMjcsLTAuMjU4NiA0LjI2NDkyLC0wLjUxNjk3IDEuNDg2MjIsLTAuMjU4NTggMi45MDc4NSwtMC41ODE1NiA0LjMyOTUsLTAuOTY5MzEgMS40MjE2MiwtMC4zODc3MSAyLjg0MzI1LC0wLjg0MDA2IDQuMjAwMjYsLTEuMzU3IDEuNDIxNjIsLTAuNTE2OTYgMi43Nzg2NSwtMS4xNjMxMyA0LjA3MTA1LC0xLjgwOTM2IDEuMzU3LC0wLjY0NjIxIDIuNTg0NzgsLTEuMzU3IDMuODc3MTYsLTIuMTMyNDQgMS4yMjc3NiwtMC44NDAwNSAyLjQ1NTU0LC0xLjY4MDA5IDMuNjE4NjksLTIuNTg0NzkgMS4xNjMxNiwtMC45MDQ2NiAyLjI2MTY3LC0xLjg3Mzk0IDMuMjk1NjIsLTIuOTA3ODYgMS4wOTg1MywtMC45NjkzMiAyLjA2NzgxLC0yLjA2Nzg0IDMuMDM3MTEsLTMuMTY2MzggMC45NjkyNywtMS4xNjMxMiAxLjg3Mzk2LC0yLjMyNjI4IDIuNzE0MDIsLTMuNDg5NDQgMC4xMjkxNSwtMC4xOTM4NyAwLjI1ODU5LC0wLjQ1MjMyIDAuMzg3NzQsLTAuNjQ2MTkgMC42NDYxNywtMS4wMzM5MiAxLjI5MjM1LC0yLjA2NzgzIDEuODczOTIsLTMuMTAxNzYgMC43MTA4MywtMS4yOTIzOSAxLjM1NzA0LC0yLjU4NDc5IDEuOTM4NiwtMy45NDE3NyAwLjU4MTU5LC0xLjM1NzAyIDEuMDk4NTUsLTIuNzE0MDUgMS41NTA4OSwtNC4xMzU2NiAwLjQ1MjMyLC0xLjM1NzAzIDAuNzc1NDIsLTIuNzc4NjQgMS4wOTg1MywtNC4yMDAyNTggMC4yNTg1OSwtMS40ODYyNTggMC41MTY5NCwtMi45MDc5MSAwLjY0NjE5LC00LjMyOTUyOCAwLjEyOTE0LC0xLjQ4NjI0NCAwLjI1ODU3LC0yLjk3MjUwMyAwLjI1ODU3LC00LjM5NDExOSAwLC0xLjAzMzkyOCAtMC4wNjQ4LC0yLjA2NzgzIC0wLjEyOTEyLC0zLjEwMTczMyAtMC4xMjkxNSwtMS40ODYyNDYgLTAuMzIzMTEsLTIuOTA3OSAtMC41MTY5NiwtNC4zMjk1MTkgLTAuMjU4NTksLTEuNDg2MjU3IC0wLjU4MTU3LC0yLjkwNzg3MyAtMC45NjkzMSwtNC4zMjk1MjkgLTAuNDUyMzEsLTEuMzU2OTkxIC0wLjkwNDY3LC0yLjc3ODYzNCAtMS40MjE2MSwtNC4xMzU2MjMgLTAuNTE2OTksLTEuMzU3MDI4IC0xLjE2MzE1LC0yLjcxNDA0MiAtMS44MDkzOCwtNC4wMDY0NDMgLTAuNzEwODEsLTEuMjkyMzg4IC0xLjQyMTYxLC0yLjU4NDc3NiAtMi4xOTcwNCwtMy44MTI1MzYgLTAuODQwMDUsLTEuMjI3NzYgLTEuNjgwMTMsLTIuMzkwOTE3IC0yLjU4NDgsLTMuNTU0MDg3IC0wLjk2OTI3LC0xLjA5ODUzMSAtMS45Mzg1NywtMi4xOTcwNiAtMi45NzI1MSwtMy4yOTU1OSAtMC41MTY5NCwtMC41MTY5NDcgLTEuMDk4NTMsLTEuMDk4NTMyIC0xLjY4MDEsLTEuNjE1NDc2IC0yLjkwNzg3LC0yLjI2MTcgLTUuOTQ1LC00LjM5NDE1OSAtOC45ODIxLC02LjMzMjczMiAtMC40NTIzMywtMC4yNTg1NzQgLTAuODQwMDUsLTAuNDUyMzQyIC0xLjI5MjQsLTAuNjQ2MjEyIC0yLjEzMjQ2LC0xLjM1Njk5MiAtNC4xMzU2NiwtMi4wNjc4MzEgLTYuMTM4ODUsLTIuNzE0MDA3IHoiIGlkPSJwYXRoODE4Ii8+JiN4YTsgIDwvZz4mI3hhOzwvc3ZnPg==;" parent="14" vertex="1">
          <mxGeometry x="12.33" y="6.95" width="23.87" height="23.05" as="geometry" />
        </mxCell>
        <mxCell id="991" value="&lt;font color=&quot;#000000&quot;&gt;Validate access token&lt;/font&gt;" style="strokeColor=#dddddd;fillColor=#ffffff;shadow=1;strokeWidth=1;rounded=1;absoluteArcSize=1;arcSize=2;fontSize=11;fontColor=#9E9E9E;align=center;html=1;" parent="14" vertex="1">
          <mxGeometry x="30" y="56.16" width="270" height="53.84" as="geometry" />
        </mxCell>
        <mxCell id="L5WZl7pAFnGiY_Ook2da-1002" value="" style="edgeStyle=orthogonalEdgeStyle;rounded=0;orthogonalLoop=1;jettySize=auto;html=1;" parent="14" source="DmBbYhYIXKUU_peMQ1FZ-1000" target="L5WZl7pAFnGiY_Ook2da-998" edge="1">
          <mxGeometry relative="1" as="geometry" />
        </mxCell>
        <mxCell id="DmBbYhYIXKUU_peMQ1FZ-1000" value="&lt;font color=&quot;#1a1a1a&quot;&gt;is valid?&lt;/font&gt;" style="rhombus;whiteSpace=wrap;html=1;fontSize=11;fillColor=#ffffff;strokeColor=#dddddd;fontColor=#9E9E9E;shadow=1;strokeWidth=1;rounded=1;arcSize=2;" parent="14" vertex="1">
          <mxGeometry x="112.5" y="155" width="105" height="93.08" as="geometry" />
        </mxCell>
        <mxCell id="DmBbYhYIXKUU_peMQ1FZ-1001" value="" style="edgeStyle=orthogonalEdgeStyle;rounded=0;orthogonalLoop=1;jettySize=auto;html=1;" parent="14" source="991" target="DmBbYhYIXKUU_peMQ1FZ-1000" edge="1">
          <mxGeometry relative="1" as="geometry" />
        </mxCell>
        <mxCell id="DmBbYhYIXKUU_peMQ1FZ-1004" value="No" style="text;html=1;resizable=0;autosize=1;align=center;verticalAlign=middle;points=[];fillColor=none;strokeColor=none;rounded=0;fontColor=#1A1A1A;" parent="14" vertex="1">
          <mxGeometry x="45" y="170" width="30" height="20" as="geometry" />
        </mxCell>
        <mxCell id="DmBbYhYIXKUU_peMQ1FZ-1007" value="Yes" style="text;html=1;resizable=0;autosize=1;align=center;verticalAlign=middle;points=[];fillColor=none;strokeColor=none;rounded=0;fontColor=#1A1A1A;" parent="14" vertex="1">
          <mxGeometry x="165" y="248.08000000000004" width="40" height="20" as="geometry" />
        </mxCell>
        <mxCell id="R5sGTcabp0JMVqq_2BZA-1001" style="edgeStyle=orthogonalEdgeStyle;rounded=0;orthogonalLoop=1;jettySize=auto;html=1;" parent="14" source="L5WZl7pAFnGiY_Ook2da-998" target="R5sGTcabp0JMVqq_2BZA-1000" edge="1">
          <mxGeometry relative="1" as="geometry" />
        </mxCell>
        <mxCell id="L5WZl7pAFnGiY_Ook2da-998" value="&lt;font color=&quot;#000000&quot;&gt;Login in Keycloak by currentpPassword&lt;/font&gt;" style="strokeColor=#dddddd;fillColor=#ffffff;shadow=1;strokeWidth=1;rounded=1;absoluteArcSize=1;arcSize=2;fontSize=11;fontColor=#9E9E9E;align=center;html=1;" parent="14" vertex="1">
          <mxGeometry x="30.000000000000046" y="279.65999999999997" width="270" height="53.84" as="geometry" />
        </mxCell>
        <mxCell id="R5sGTcabp0JMVqq_2BZA-1005" value="" style="edgeStyle=orthogonalEdgeStyle;rounded=0;orthogonalLoop=1;jettySize=auto;html=1;" parent="14" source="R5sGTcabp0JMVqq_2BZA-1000" target="R5sGTcabp0JMVqq_2BZA-1004" edge="1">
          <mxGeometry relative="1" as="geometry" />
        </mxCell>
        <mxCell id="R5sGTcabp0JMVqq_2BZA-1000" value="&lt;font color=&quot;#1a1a1a&quot;&gt;is logged in?&lt;/font&gt;" style="rhombus;whiteSpace=wrap;html=1;fontSize=11;fillColor=#ffffff;strokeColor=#dddddd;fontColor=#9E9E9E;shadow=1;strokeWidth=1;rounded=1;arcSize=2;" parent="14" vertex="1">
          <mxGeometry x="112.5" y="360.96" width="105" height="93.08" as="geometry" />
        </mxCell>
        <mxCell id="R5sGTcabp0JMVqq_2BZA-1003" value="No" style="text;html=1;resizable=0;autosize=1;align=center;verticalAlign=middle;points=[];fillColor=none;strokeColor=none;rounded=0;fontColor=#1A1A1A;" parent="14" vertex="1">
          <mxGeometry x="60" y="380" width="30" height="20" as="geometry" />
        </mxCell>
        <mxCell id="R5sGTcabp0JMVqq_2BZA-1016" value="" style="edgeStyle=orthogonalEdgeStyle;rounded=0;orthogonalLoop=1;jettySize=auto;html=1;" parent="14" source="R5sGTcabp0JMVqq_2BZA-1004" target="R5sGTcabp0JMVqq_2BZA-1015" edge="1">
          <mxGeometry relative="1" as="geometry" />
        </mxCell>
        <mxCell id="R5sGTcabp0JMVqq_2BZA-1004" value="&lt;font color=&quot;#000000&quot;&gt;Reset&amp;nbsp; user password in Keycloak&lt;/font&gt;" style="strokeColor=#dddddd;fillColor=#ffffff;shadow=1;strokeWidth=1;rounded=1;absoluteArcSize=1;arcSize=2;fontSize=11;fontColor=#9E9E9E;align=center;html=1;" parent="14" vertex="1">
          <mxGeometry x="30.000000000000046" y="490" width="270" height="53.84" as="geometry" />
        </mxCell>
        <mxCell id="R5sGTcabp0JMVqq_2BZA-1006" value="Yes" style="text;html=1;resizable=0;autosize=1;align=center;verticalAlign=middle;points=[];fillColor=none;strokeColor=none;rounded=0;fontColor=#1A1A1A;" parent="14" vertex="1">
          <mxGeometry x="165" y="460" width="40" height="20" as="geometry" />
        </mxCell>
        <mxCell id="R5sGTcabp0JMVqq_2BZA-1015" value="&lt;font color=&quot;#000000&quot;&gt;Send change password&amp;nbsp; email&amp;nbsp;&lt;/font&gt;" style="strokeColor=#dddddd;fillColor=#ffffff;shadow=1;strokeWidth=1;rounded=1;absoluteArcSize=1;arcSize=2;fontSize=11;fontColor=#9E9E9E;align=center;html=1;" parent="14" vertex="1">
          <mxGeometry x="30.000000000000046" y="640" width="270" height="53.84" as="geometry" />
        </mxCell>
        <mxCell id="DmBbYhYIXKUU_peMQ1FZ-1016" style="edgeStyle=orthogonalEdgeStyle;rounded=0;orthogonalLoop=1;jettySize=auto;html=1;fontColor=#FF1900;" parent="1" source="997" target="991" edge="1">
          <mxGeometry relative="1" as="geometry">
            <Array as="points">
              <mxPoint x="340" y="163" />
              <mxPoint x="340" y="163" />
            </Array>
          </mxGeometry>
        </mxCell>
        <mxCell id="997" value="&lt;font color=&quot;#000000&quot;&gt;Clients&lt;/font&gt;" style="rounded=1;absoluteArcSize=1;arcSize=0;html=1;strokeColor=none;gradientColor=none;shadow=0;dashed=0;fontSize=12;fontColor=#9E9E9E;align=left;verticalAlign=top;spacing=10;spacingTop=-4;fillColor=#F1F8E9;" parent="1" vertex="1">
          <mxGeometry x="150" y="75" width="90" height="825" as="geometry" />
        </mxCell>
        <mxCell id="818" value="Change password flow" style="fillColor=#4DA1F5;strokeColor=none;shadow=1;gradientColor=none;fontSize=14;align=left;spacingLeft=50;fontColor=#ffffff;html=1;" parent="1" vertex="1">
          <mxGeometry x="150" y="10" width="1370" height="40" as="geometry" />
        </mxCell>
        <mxCell id="987" value="" style="strokeColor=#dddddd;fillColor=#ffffff;shadow=1;strokeWidth=1;rounded=1;absoluteArcSize=1;arcSize=2;labelPosition=center;verticalLabelPosition=middle;align=center;verticalAlign=bottom;spacingLeft=0;fontColor=#999999;fontSize=12;whiteSpace=wrap;spacingBottom=2;html=1;" parent="1" vertex="1">
          <mxGeometry x="160" y="120" width="70" height="70" as="geometry" />
        </mxCell>
        <mxCell id="988" value="" style="dashed=0;connectable=0;html=1;fillColor=#757575;strokeColor=none;shape=mxgraph.gcp2.laptop;part=1;" parent="987" vertex="1">
          <mxGeometry x="0.5" width="50" height="33" relative="1" as="geometry">
            <mxPoint x="-25" y="18.5" as="offset" />
          </mxGeometry>
        </mxCell>
        <mxCell id="NTQgwEyuaVes2y7K-TFk-1004" value="&lt;b&gt;Keycloak admin API&lt;/b&gt;" style="fillColor=#F6F6F6;strokeColor=none;shadow=0;gradientColor=none;fontSize=14;align=left;spacing=10;fontColor=#717171;9E9E9E;verticalAlign=top;spacingTop=-4;fontStyle=0;spacingLeft=40;html=1;" parent="1" vertex="1">
          <mxGeometry x="1063.63" y="80" width="446.37" height="550" as="geometry" />
        </mxCell>
        <mxCell id="NTQgwEyuaVes2y7K-TFk-1010" value="" style="shape=image;imageAspect=0;aspect=fixed;verticalLabelPosition=bottom;verticalAlign=top;image=data:image/png,iVBORw0KGgoAAAANSUhEUgAAARgAAAEYCAYAAACHjumMAAA3y0lEQVR4nOydCZhcVZn339qrurp63zs7oCGpimEGFGaIoI6KW4sOKjVuuCA44wDKo2gyjOM3BmQU+WTkGXnED2YYvMAwwsRRI4qCECEKYalKSICQkE6nl/TeXV3bXb7nVNeNlUot91a9b917q87vefqBJN3nnq577v++592OU1EU4HA4HArsRk+Aw+HUL1xgOBwOGVxgOBwOGVxgOBwOGVxgOBwOGVxgOBwOGVxgOBwOGVxgOBwOGVxgOBwOGVxgOBwOGVxgOBwOGVxgOBwOGVxgOBwOGVxgOBwOGVxgOBwOGVxgOBwOGVxgOBwOGVxgOBwOGVxgOBwOGVxgOBwOGVxgOBwOGVxgOBwOGVxgOBwOGVxgOBwOGVxgOBwOGU6jJ2AVhoaGLgUAweh5cEzB7Tt27LjS6ElYAW7BaEAQhNMB4IdGz4NjGq4QBOG9Rk/CCtj42dTlGRoa+i8AuMToeXBMxSvhcPiccDg8a/REzAy3YMowNDT0LS4unAKcLgjCbyORSJvREzEzXGBKsHXr1ksB4Dqj58ExLZsFQeDrowRcYIoQiUS80Wj0RqPnwTE30Wj0mqyPjlMALjBFiEajzHpZY/Q8OKbHKwjC3xk9CbPCBaYIgiBcYfQcOJbhY9wXUxguMAXYunXrxwDgXKPnwbEMXYIgbDN6EmaEC0wekUikmfteOHrJ+mLWGz0Ps8EFJo9sVGCF0fPgWA6nIAi3GD0Js8EFJo9oNPoFo+fAsSwXDQ0NXWj0JMwEF5gskUjEOTQ0tBMAuLOOUw0PRiIRbgFn4QKTRRCEawHgnUbPg2N52rZt2/ZtoydhFrjALFsvfdFo9KtGz4NTN1wqCML5Rk/CDPBix+V6ox8CwGeNngenrnh6x44d5xg9CaNpeAtGEISzAeAyo+fBqTvO3rp1a8O/tLjALKd588ZbHHSi0WjDlxA0tMBEIpE+3oqBQ8hmQRAaOmzd0AKzbdu2GwGg2eh5cOoXQRBuiUQiDWshN6zACIJwLve9cGoAs2I+Y/QkjKKRBYandXNqQjQa/aYgCA3Z+qPhBCabsfsQr5bm1JAuQRCezPr8GoqGE5hoNPpeAHi/0fPgNBx927Zta7ijThpOYHj3MY6BfCYSiXiNnkQtaSiByZ5l81dGz4PTsKxotCbhDSMw7M3BHbsco4lGo19tpGrrhhEYQRCuBgDe/Z1jNN5GqrZuCIHh1dIck9Ew1dYNITDbtm27jDeS4piJRgk21L3AZL32/AgSjtm4OBKJ1H3yXd0LTLZTXd3fSI7laAhfTF0LjCAIm7nvhWNiLhkaGvonoydBSd0KjCAI6wVBeJJXS3NMzte3bt1aty1D6llgbmFmqNHz4HDKEY1Gb6zXDN+6FJhs5epFRs+Dw9HI6dFo9GKjJ0FBXQpMJBK51ug5cDh6qNewdd0JjCAIwWg02nBVqxzLc/7WrVsvNXoS2NTdsSVDQ0O/skpB46KvBV5c+2eZ/0p2B9q4gWQMNh55Hppnx9HGpCTR1AKzbw+DbXAt3qCyDM6ZCQg8vgPcx17FG5eWw9u3bz8zFAoljJ4IFnXVK9Rq1dLPvu4vYLalG33cxNqNsHvTX8Cb778JXKk4+vjYPHPR5SAPrIXTArh+Tqm9B8T2Huj54dfBJqVRxyZijSAI14VCoW8YPREs6maLZLVq6SM9p5GIi83lAaWrH5Zae+D3H/gipN0+9GtgIdvs8Mw7Pg3T/afBrGKHxWQK/RpMZBbPscw7p+6qretGYKLR6EVWqpY+NLieZFx7RzeAzZb5//muFTC27g0k18FgcuV6OHbG2Sf+PJGgsTJib7SOwGQzfOvmwLa6EZhsOwZLMN3SA/PNHejj2mw2kLr6T/q7Vze9NWMpmJFX3/CWk/48Y3NBMi2iX0f2t0J8g6VOcf2MIAh10b/XnCtPB9km3vcCgCUOuJJtNoiuO5tm8L6VAI6T3Wrz3Stg+Ezz9TefWLUBjq/aeMrfDyclkuvNX/jXoDhcJGMTsCLbJLzL6IlUi+UFJnvmzEeMnodWhntOg7lAJ/q4NrcHlO7Bgv+2/9yLTeWLYRZV9PzC2fFzsg3mU/hbJam1CxbOs1Tu5RpBEP7Z6ElUi6UFJhKJtEWj0W8aPQ+tpB0uOLBmM83gA8ULxlO+Znjp7HfRXLcCDr3hrRBrL74DGE5IADK+JbN43rtBCrSjj0tFNBr9rCAIQaPnUQ2WFphoNHopAFjGjBzrWgVJAkvC4/GA0lLap3N40wUgOcyRlXBo0wUl/z0Bdhhewo8ogdMFS5u34I9LhzPbbsSyWFZgIpGI00qOXcnugIODG9DHtbnckDyjvFUkO1wwvN54X8zo2k0Q17BFnJAdECPYKsU2bQHJ34I+LiEXW/nANssKjCAIVwAATawXGSYuu4NvgwU/QddOtjWya7uNB940ZKgvhllQ+/7yg5q/P+PwlWXUOcgt7TD5ya0g+yzTxaNt27ZtlvXFWFJgrOZ7YZbLVGsv+ri2pgAordodxilfM+w/dwh9Hlo59Ia3ZhIAtRJT7DCdpHH4zl9gqeLlywRBIAo90mJJgREE4UarNPGOu5vg5VUh/IEVpaRjtxivbTwfxtbWPvlurmsFvPxn79D9c0fTALKInxuz9IYtkO5ZiT4uEU4rZannYjmByVZLWybT8cU1fwYyYiGjir2jB5Qm/Wa+YnfAH999Bcz01q5N8WJrFzxxyZdB9DTp/tk02GCUIjfG7oC5v7JMdgNYtdraigLzd1Yp0kw73TDSi1ghnIPcW93b97Xgm9HmUo7DoQszTuZKGZdsABK+yKRWr4d0lZ9jLYlGo5Y7HcNSAiMIwnoAsIyKU0SNGDZ/C4DbU9UYI6f/OSwF8MsV8km7fTDyujdWNYYCAFMp/G0SY/HP30oyLhEXDg0NXWP0JPRgGYERBOH0bBNvS/heljx+OLiCICxdoe8lH9npghfPo3d0HnjjezLO5WrJ+GIkfJGJv2ELpPosdarNLYIgWCYl2UoCYxnHLhD6XmwdPaD4/ChjHTvj7EyrBCoW2nrhcKh0Up1WRLDBSIKmTslivphMQ/tIJGIJN4ElJikIwoUAYJmjHSZbe+FYD/5b0eFwgIRgveRy4Jz3wHk7bkUdU+Xls9+VcSpjMSHZoC2RhIC3uu1hPumVZ8DSxnOhae9TqOMSsl4QhH+NRqM3Z7TXpASDwUnTt8w8duyY55lnnnl+8+bNrzd6LoVIp9OZNgkqSUmGD/7mRXhxDreTnMvjgfTpm06plq6WoEeGHatpLIO/PeaAnYv4RvJGvxO8DtxxO+wy3NwZB79dATEbFmf31ul0nnR/qZBlOfOll2QyCS6XeavETb9Fmp+fD5tVXCC7CHP5wYExdHFh2Lr60cWF8a4A3QvmrX6asafT+II4LdvhW1MuWFpaOvF37MGthbhAVmAqwePBteawMb3AzM7Oft7oORSDiYvb7T7x5xemY/Bv+0fRr+NyOEBsxa/pDNgVuKQFNxU/l/cFZBh04ovMWEoBicDyPiC74UXQn6tTLWKViYTV/jwlphaYI0eOfHJwcLC6GCcR7Kbmv3X++flhSMn4C1/pXZGJ+mBzZYcM3YReOI8d4Cvd+NYG+4RHEjQP1V0xH0g18hqw9YMhDnaNtWhGYNqZjY6OehYWFr6TvwUxA2xRSJKUcbqq/HR4Gp6ZWkS/lsPjBbGzH33cVS4FPt1GZ72ovC+gwJ978a9zPK1AQsIfd1x2wC8S9NuOSn0uhZAIkhCxMK3ADA8P/2NbW1sX1k3AJF9ckpIM/xI5SnOxgbUnmnhjcn23lLEwasH1PRK4CVwZwwkRbIBvbjwU98KsTOd7wRQXMLkfxpQCE4lE3tbZ2fkV9v9er7nOBGcWVa64MP5t/yiMEDRIcgbaQArgp/58uUuCtzXXLnq4yQtw+4AIbhvuNeclgDkR/wW0pNjg/iWadYctLiq5zmkzYUqBsdvtO71eb8Y7YDbzr9Ce+c5XJkiuZe8ZQB/zTI8Cn++ovVV4gV/JfGEzmqT5XXYl3RBT8K0YKou8udmc/W1MJzBPPPHEtra2thOux1SKoHVihTDrJT/n4MHXpmCBIGzqae+EVBN+57XPthsn2J8i8PksSgrMENQppcEGjyTcqGNSvyzN9KyomEpgRkZG+nt6erbl/p1Z9pdsceS/fWKiBDe+MIx+Lac/AMmVr0P3vWz2yvCBFuMSK89tUuA9AXyReTUhZ+4FNg8i+mIKRR2xMcuzkoupBGZ2dvYmv99/Uk/HTHq8CbZJhXwvP9g/BpNJ3Len3Vb6hIBquL7beIf5dV0Sui+GcSguoTt8k4oN7o1V32JUjYRSJ+1xC6YEkUjkTc3NzR8r9G9Gf3BqynguTx1fgB++NIZ+LWd7D4gE/WI/2CLDWT7jy0JWuAAub8cXuqQCME7gj/ldyl1V2Dq/lIQSZsGYLepqGoFZWFi4xel0FrwTRkaSCpm2+2ZicNnjL6En1WUydvvwGyA12ZSM5WAWruyQoY8gw/doUgKZIMP37pgPnk/pz0ispbiomK220BQC88ILL5y7evXq84r9u5GZivF4/JSt0Z2vTJBk7KZbOkB24joWIVtvRJmxqxe/HeDDrfhvWnZHJlM0QqrXimEvplqLCyPf0jYaUwiMy+X6Qql/TyaTtZtMDuwN5POdvAc/nkjDw8dm0a9ltwG4uvHD0kwaP95mHutF5SMtMokvZjwlg50g+S6adsIxUdvjwixeoywJo90J+RguMPfcc8+1zc3NHy31PfkWRC0oFDVi3BwdIQlLOzt6Ie3FL7T76xY5k+hmNvpdAF8gyMdJKQBjBL4YGWxwpwaHr1pGYoT1Aib0wxgqMC+++OK7Lrzwwu+U2wIZ0e+CLZR8YXthOgb3H55Ev1bG90LQfHrQqcC1JvK95HN5uwxvInA8Z3wxBA/ZXtEFe0r4YmoVLSqHmfwwhgpMMpn8ntbvjcfxe6wUo1BIGrLV0hRQVEt3ORQQVoqm8r3k47ED3LVChDPcuA+EkhUZCu6O+TJWUj5GOHStgGECs3v37i91d3efofX7c/uuUFKsVuTB16ZIqqU9re0k1dJf6ZIyIWGz47EtF15iczytwCzBVnZcdsDOPIev2cTFTO0bDJuJw+H4qp7vr5V3PL9SWuXug/j1Rm6nA5Kr16Nn7GYaSbWax0wux/l+JVMjhc3BuASg4G+Vfp0jMEZFi0rB1q9ZmlAZIjB79+4d6u/v79bzM7XoC8P2roWsl2enFuG56Rj69WQCy4XxiRr0ecHmYy00DwTFSQSTsh12J12Zh9hM/o5czCJ6hgiMKIq629hT30hmuSQSiZr5XhxuD4jdg+jj9jkVkugMJalUCt7flIL1bvx5j6UVSBM4fP8z5s20dTDLg2xWai4wTzzxxLaurq7Ven+OupCLvY3yo1WirGQydimsF+hbxTbL6MN+uat2jaSqhQlLMpnMPKQuuw2u76TJ4RgmsGKmFAd8Y7GNpKUDBmbxw9R0FoWqpfVA1VSHLfRClsudL4/D78bn0a/n9AdAasNv4m10tbRWmLXIPnMmLLkPwtleGd7tx98qzYgKSe7SqOyABxO1bxKuBbaeYzGCF6NOaiowsix/Ir9aWg9UGb3FqrX/g8Cxy3B29ZGM+ymCIkJs2GddyjF6aYDGFzOeovlsfpvyQtqkmh4IBIyeQu0EZs+ePa0zMzNXVTNGWxt++8hCTaQYD4/MkLTBdHk8kCA4dH7QqcA7iM4hwoIJC/sqZb6/ySfDRje+tTEn0TQJT4MNHk2ZMFU6i9HRpJoIzOjoaGsymXyus7OzqmIb7N4wxXJekpIMN7xA1MS7bzWJ7+UrNWzirRe2yOPxeMZRr8U38I+dNBFDCl8M47+TTdwXU+z6tbjI+Pj49lWrVqF0UcIs5irme/l/L4/DkRj+dszV3ALp1k70ca9olzLHg5gNJt7sM2bCoiePabNXhu/3JMGBXLQ4LykwT+CLWVLscH/cjz4uBkY3ayMXmLGxsTP9fv+VWOM1NeE41Qo1kYJstfRtL+Kfzui025aPIEHmomYZrjNBp7p8mLhUk+H6dr9E4o95LSGBk6Da+rG0B45KtS/KLYfRbTTJBWb//v23eDweRzKZRFFTjDHYG7VYXs1NkaOwhLxXd9htYF97Jnq1tNumZEoCzIZ6r6s1z6/pSEObHVcMUgrAs4siWwSo48pgg3sS5rRijGzhQCowe/bsWbVu3bp3QjbVH8PhhJHROzs7W3DxH40l4SevTVU9fj62lg5I+VvRx31HswJralOipQm2kMs5cfXQYgd4fzO+FZOSFZhMU1Rbu+FxEzp8jbRiSAXGbrefVG/ERKbaUHO1rRuYQBUK382nRLjsiZerGrsYtk6asPTHCbrCVYqaNo+dcf3RFhHdF8M4nsJvEs5gVsy4ZC5ve11aMBMTE5taWlpO8b1UKzLVFD2WOlXv5r0j8OpCouKxi+Fu74K0H/98o/cEZDinyXjHrpo0pzVCpJfVLgU+QVCntCQDTBG018ycCpk011apLi2Y/fv3f7dYE+9qRabS3jDFokYH5+Pw41ePVzyfYjjsNkj3rUIf122SJt5qXgt1Pc7ftqcz/W2weS0ho/tiGH9MeyAqmqtXhlFWDInARKPRoTVr1ryt1PdUIzKVKDJ7EIpZP19/7ghIBMaArXsQFBf+2+PKdtnQXi9681qqpcUOcHUb/gMiZ6qtaRLR7on7SdZUpRjRFRIoBEYQBG86ndZULa2KjN7IkN43ZrE2DIxHRmfh9xMLusbTAmW19BXtxmRn5m6Hat29/oMBiazamiLDd0R2wmMmcvga0VaCPdvoAtPU1LSzs7NTc7V0JdElveZe5hct8qa946VxXWNppr2bJGP3w60yOCRjBEYtUDQCttn+JFHPmBmio05+mar+VEgsav1CUNMUUJ+APXv2vDUUCl2g9+f0bpf0mOWllPvA3BI8PYlvvTgddlA6e9HH7XIomeM+ap3+zYSFfRl95s47/SKJFTOaVkgObBuVHfBC2jy+mFr6YdRdCepKTSaTt1a6CPWIjB4fTKkH45+eJfK99KxAP0Ct3aHAT1aJmeM+2O9TixTw3LYKZmis5LcD3D+QgFVOXJHJNAkn8sX864IPRJP4Ymrhh2FrJh6Pn1gvaAKza9euqwYHBzdWM4YekdHyfWozo0L8/Og07J7Eb+Ltb2mFNEErzC911taxy4TFyPN98ueSTqcz91NcisF1rfgnTGSahKeQRUZRYPcSwP2L5siGpPbDyLJ8SjAFRWBGR0dbW1pavoExllbHb7nD2NSQdKHtxHxKhH+JjFQ913xcviaIrVqP7ns50yPDR/KS6qgO1zLaamFCwr7YPJaWlk7y+7B76Xa74QKfCH/pwa+4PpiQYVHEswyPJaWMhXzrnAdGNJ4KSQlWNn0xCpWHoPzW4+PjN7S2tqI1a2EfRKnID5Qx90pllDJx+eBv95NUS2eKGQn8I9d3y5CfUcR+f8xG6GxxqA92rYRFNafVfsjsS4Xde/Y7FpvLdW0Jkgzf4QROhm9almE02+RqQbHBX4/7YUQ03hqk8t8V21GgXM3tdl+OMU4ubGGVEphSDiv2yxazcH46PEOSsdvU1ESSsXumR4Fzi2TsYu2p2QOuWoy1EBcmKsw6YfeXvUzYf9n90nNE8DqXDOd6CTJxZYAFBKdJfmRqQbbBQzHjt0oU26RS9WdVC8yuXbuuaW5uJvEOsMVezKQr9kGVSv4SZQX+4yBNWJrC7wJl6o0wzF3qbFwmXEzwmYioVgoTFQxx/LifpoXqRLVha0WBkQLHP9636MoImJFQ3OdShkBVAjM6Otra2tqK4nspRjGR8XoLJzGVynm579BxeHke33pxNfkh3d6DPm7QI8OlJc44Yg9qpduk3GZQWGYzG5NZJ6pDlokJ+zs2vnqgnR4rpRzn+0R4sxffFzMjKrBUhS9mJCFCobs2JdvhjgVj+7NgFBznUiqQAtUKzPHjx7/V0tKCvy/Io5jI5D9cpUy1jGM3iu/YZSgEjaQg63vBRvX0Yxx3qjpk2ZfqS1EjCOw+YIpJMb7alsjUZmFzuEJfzGxaymQHF+POBTccShobt8bIZ2LrqNTLXKVigYlGox9rbm6+otKf14sqMrnmWP42qVSTo5v3jpAcXeFu7wKxCbd7O3ssfzAgaqqWZlsNrW8k1ZFbidWibnXYPYjFYqeIu1FJeKucMvy4OwY+ZJGJywCTOg/Qj4nS8nG1JUgpNrhlzpsRZKpTMsrB1ky1SXdaG4pVJDCRSGRLU1PT3cWqpalQHb+qyOQm3BWrlIZsxq6VqqX/plXKNJPSiuooLYXqB9GyKFR/CVtEi4uLJ4Sd/SwTJ7fbeGdlLuvdElwRwN/6HknKmjN8mbWjtan4I0kPPCt7M5+nup2sdbVzNS0ccqN95ahIYKanp68y6o2VG13KzZUplTdz98HjJBm7UmsXSbX05TqPfi132DlbEFqEZWFhIfOl+kvY58wWolnPX87lw81p9K0SuwuTGh2+C6ICMR237cexP9UpsXvD1jWzDGv1WVdqPZV6kRdCt8CMjo6e3t/ff7Hen8NE3S6pTkr2ABWLSkwnRfjp8DTJPCgOUHtzU2UZu4X8KWoNUaEFkW+lsDep1+st6jw3Oy12Bd7rw3f4TqRkTfk2eiNPv0u64Ehe8h2zDNk9YfeC+jyjWrVv0C0wu3bt+q7X6zW26i37QKn+h1LWFIXvhT3L7nXrQfQ1o47LZOCfeiqbK/ssVCuuUDYu2/MzUWFvSTVTOtdKqQeuak1AANmKSSoAz5VpEr4oSpnIkx4ksMG350/tfKeuZfbiVP00FFYNu/d6t2WVVNPb9Ex+79697/D7/b80+jAnNmfVxMstrMrnoaOz8H/2jaNvj9zd/ZDqRznm6SQ+2y7B1ioiR0w02GfDRISJhnp0iFHNhozgzgU33DyH3yah122HFQXeqzZQYN9iuuL8lk/543B1oPSZ66pLgD13mPdSTw/lStMhdFkisVjsVqPOu1W3QkxMmJKqH7Ran5LP7slF+Ppe/KS6jAe+ZwX6uG12BT4XSID6Uin3plAjQrmonwv7UhdlI4kL4+PNKbg/5oZhETdEPp6Sodctgyvv5TqVkqpKnrsz5oPTHCK8t6m4NZH7QmcvD2blsK9q0wByn6NSaAlHF0PzT+3ateuqvr6+11d0lQpRRYVZKeyDVf8u90MptD0SZQVujB6jmVTvSgAH/g7x2vZUpjWkivp2KfbFbjizUtQv9pmo0SQ1YtSIOG0A17XiR5Sg0NGzspyJNFXLrYt+0Joaw16m7N6rPrRqok+qlVsKrQGCYmj+SafT+cWKr1IB7Befnp4+YcIVU+tCH/Ce6RjsJ8jYdTsdkG7rRh83YFdgqMrzf9QkQ9WpS7V3twIX+kQYcOALbMbPomS3K6DAczERZfs9IdthZ0K/H4zd52qjT6W2PuzfqrWSNAnMvn37LurvJ3A65MEeEqaYCwsLmWI4LcfEFjLxfnQQP+eFYevoJamW/kggDZ4qMorY4lIdvOp2UU2mUiNtjcZlAZoktmNZi2UmLaP69h5Yqjx6x+65+uzo9ZVQRw01PS0zMzPXU01ArV9RQ6VqQ2mtysm+L/cYk4MLCXhsHL8NZiZi1Y3ve3HbFPhca+XhVdWpq5qxuWKi9sOpRdjTbHzYn4K1TvzM7dGUDKIkwRGNSXVaiaSd8FSyuq23+syw50Hri6XYFgsr8c+QcDNb7GooVfWhVGOK5TpEUzLF29oG3tM3QqjNB9jFqB5QwGsrHUUoRb6jrpBzWN2zq99rhi511DhtAJ5DewFi+MK6b+16SHtwzxlnSArOfVGfKbVSnj1bxe67x+M5pYYPs7m7JoFpb2//ZwD4RTUXUp2Pav4FINavMDNPHffMVh+c0+mHP07FUMZmOLp6YcHlg6mUCF0eXE1Ogi2z/x7y6Tfp1bKJ3MXBPgNmseR/tur3qFYiM6vrWWh+enQW9s/grQEVR3sXibiscYjwJoIufeo6UKueC+0Oci2dalp3qH4/trbUVBJNW6QNGzbsHB0dPVzJRdmFZmdnT+StUFXY5u49P7muC3VsV89A5r8zBAemQ6Y2pbJ9cLHq8VLbIbXK2ahCu1ohHJkhGddBkL3NuKQpeUrXQkzU7TJ7IU1NTZ0kKrkvIz1babYVm5mZObElY8LErqHuUNi4mj2WsizfovV7c8PLS0tLNckUzd0mbOkJwKomnII874o1kHAuz39eBtSerSqTsh12J/XnqxRbDFocd2pfkHoMZ++ZXoIXZvEbgzubmiHlw88Da7bJ8P4KLNhKaWlpOVFgqZbcqG1Lcw0AtaWpuvNg37e4uHgiPM6+1+/3lzQaNAvMeeedd+vY2NiBYv+uioo6CVUha5X1m1vs6HHY4WvBgarHdLR3Q6Lj5E51RxMSyRk6P443QYEmaEUp1RZUq4NO3U7VmwP4W/vGSMZVBmkCqVcHljKpCrVEDXGrEUh1B8AMglgsdkJ01O/LjVLqeaZ1Pf1+v/+q/H4saucyNRaf23SoluT/0m/pa4EvnVmFOWuzga3/1FYMMXk5exMbZsX8PKFtq5Qbli6EHotRFSm114vVeWh4BvYR5ECxl41EYL2805uED9TQesknt8cPs1aw2pmq6BKYjRs3Pnz48OFfqHsuZqkwwWELvhbdy0pR6EiGz53RA+8aaK1svN4VIBY5PG08JUOS4DzjHXEvzMrlN+L5pmwh9IYZc4XGqtum+bQEt7xEkAPldBV82VTLZlcabmpbJPW9FIM9K2rj9dzmUXp6vWhB9/5lw4YNVyWTSdEoS6UUhR6M6zYOgNuu7w46PF5QShxcn1QA9sdESCOHxJNggx8vlS7U03qiY6VvIStvm350cBKmkrjztjud4Hv9pqIvm0pxgAJfDuBHucrB7q3akVCNFuUGSJjQYIqMboHp6el5ZWxs7CG0GSBSqOixz+eC9wzqO7LJxszhMqE6tozHCLZKu1IeiJXIh9DaqrCao2VzrRmrwCzK+wkiR86OHog78Dv4neUWYaOb/vjfXJjFUijymJ+Qp5acYFCRB7avr+9fzfiGK/ZAfGR1h/ZB7HawaTy4fi4tg0jg8N0ZL+xDKed7yf/eamELzSoi89OROVgQsbd2NlA6acLSH/HRFGQWIv+86HwKvZjVrVO1VCQwmzZt+h0AfEoUzXKs9zLFtmybO/zwvhXarBhP3wpIO7RtL9hWSW9jaC38NOGFV8RTk6FySwLKwRZNtQuELUi1MZGZhWZkKQX/98AE+rjO3gFIE7REfaM7BW/30ffgVUPPlVgjaolJtWuo4hjyxo0b70okErdXdXVkSvWm/cqGfmhylP513a0dIHbqC2+PpmRIIzt802CDb84H4Jh0cvq2Xr9Kbo1WNajJeWrehJmYTIrwN08ezhwXgomNfdYl/HCVsux7qbw0RAtq4aPWeqRiBZKqyFSzXaoqSaW/v/+rsVhssZoxsCn2gXZ7XXD5GcVbLbia/CCvfl1Z30s+TFqGCawYJjJ3xZZT0nNPUtBDIBBAjQipmaCYZ2JXyy37x9EduwxX/2oQ7fiR0Q/4knCGi873oibQ6dkil7JSVIu5Ugu2KoEZGBiYi8ViX69mDGxKbSE+fVo3DPqKWAEDa0CEyuKFM6JCsP8H2Cu6YE/KmVkwlSYsYouB2gG/ktYA2Dw/swT/MzKHPq6zqRnENtxyE8hm7P4dgfWiZtmqYWe9tURaosFqJ0m9VJ1mu2XLlu/GYjHTvNJKLXqPww4XrzrV4ets8kO6qboDKo8TRJQYP0/4qrJCqMo02KJki85I3wxF1IghdvaCXOHLphTv9yWhHTljVz0Qj/230iJFPS8vvVtklDx+SZJ+iDEOBuUOBbt0dQcM5FsxXdUfXD8nKpAiSL47IDpgFCoXCYxIQCkcDkfGmql1U6uxeBp+MTqPPq7N5QIngfXiBgUuacKNHLGHvdzZ0Niw9aTnhYciMIODg1sXFxdnMcaqlnIx/G6vC+7+y9NOtF1w+pk5XH0bTDlbp4QNe5Pek6rcuqrF4mPWTK0dwLccGCfp/eNkW2Ubbv0cE5c7OuZhrRPnBcQ+53g8jnK+uF4LlF2PXVeryKB8kgMDA3NLS0um8cWUM/kGm9xw9frlXBfMg+tnJAUmEulSR+hUxAHZDX8UK7NimIVBbcVAXjc1aqHZM70EPzuGb714ewcg3YpvvVzeHIdN7uo/EzW9H9P3Vcn2WxUZLfcZTaq3bNly68TExH6s8aj5wMoOeMPalSAhH542nFJgjqClwwOpACxV2PGsltsXNZRO2XScolra0dIGid7V6OMOOCT4hL+6dIHcfrvYFmmlJSXqEc7lHL+otmBra+vVZsuTKIbTboMvn9FJMvZIQkLP8D2uOOGb8c6KRMaIznUUNU2irMAVf3iNoFralokiUnBV81JVDd315LNUAsbaKCUyqAKzadOmh/ft2/cY5piVoLUI82yvDOvd+I7ZhAKwRBC2HlOcsFvUf2phLbZIhcht04nBY8cXYdckfoGgr6MDJDf+aZD9DgkuqiJjl22HmLBYobVpsRcJejeoD33oQxdOTU29hj2uXrQ6rz7RQhNhP5aU0H0xjEfSPt3HZRh9uqNa11Kt0N19aAptTrmI7TT1Rh+qsM8ys1rUU0ypwaqcVtu25EPSbq6tra2mh7QVQqsV88FmmqrWmAwwjZy+zjimuOB3Oq0YzOrYSmDbJbb41C73lfDw6Dw8PY2fpOZqbYe0v7ocqEKsdEjwUZ2+F2bpxeNxXWdGm4lCWzkSgdmwYcODw8PDv6EYWyt6btD1nTQP32gS3xcDFTp8jbZiICfSpLZj1EpSkjNhaXSYhYAYRczliwHtvhfViVusiTsl5fLG9KBm++Y+e2S/TSgUusps1dbF2OyR4X1+/K1SUgGYIKhTioMdfpLSF/0yOq0/F7XzvFZr5q5Xp2B4ieBIjx66aum3esu/tHKbP1nRYimEmt2t3lsygent7d1rZLW12jVfK9e2p0kaL48TVFszHhWbYFTW3lHQbN0Hc/NmSonfZFKEO17F973YXC6w9eBXS7s1VEurbRSMsFhyoSrzYL8T+x0zvx/JFbIoinIj5fjl0NOuoM+pwG09+B84k5YxgvOUZLDBr9LaDwCrVcKdXtQTB4st9vtem4Y4gUDbO/sgbcOvlv50c6JktTQTU8ocIT1QzoHdU3KBOfvss48MDw//kvIapQgE9HWBf6NXggt8+Hk8s2kZ0gSNtHeLXlhQtN9CMwqMSqH9e1KSSaqlgVlP7dWXh+QTcolwZXNx64UJC0WynFlhlgy5fRYKha5OpYhKjcugNknSw9aOVKYpECYpBeClmJhJFMNEry8G06GHTWYx5h3Uf8fBSTgWR/a9OBzgfd0mkAh8L4WaeOeGnStppUBJLdYDucD09vYeMNIXo3ePu9qlwKda8R2KCQVglKAx0uOiL2PJaMHIULVW1KZWzxyfhx8R+F5cfasg4arsqN5SvNubPKXeyOxh51rMqSYepsHBwa0jIyMVnW1dLZV8iJ9rTUOXA//Dn0grEEfO8JXBBrcn22C/VP5tVIsjfDF4LS7C5c+MoFdLO71NIGls6K4Hn03JnM6oolY7G+3ELQf2GUiFqMlvPzAwMBcIBDZPT08fq8X1cqnEJG2xA1zdRvO2H06IJBm+QjKgKcO3FouqWm58kaYVAwysJmkk9Wl/HHod8klhZ84yNZPXc845Z66vr+/WWl1PpdLw7FCzSBK2XpABkgQO32HFBS/L5a0YLQfjG8mhWAr+MI1/cD24PSA26zsfSyuXNiUsYbHkUwuLtqafhtfrvWdpaYlg9ZSmkni/xwbw0QDNm2icyOf9sIawtZkjSYx7XqNpg+nuXUEy7gd8CXClar6kUagbH4xKf3//0Vgs9o1aXhOqsGIub02TVFtPphWIEfSMeU7ywl7RvJGicry8mIQHKZp4+5pAJAhL9zskuNK3cCKpzErU6kVTc3vu/PPPv6nW1daVfph+O8B9/XFY6yLY0iRoqq2FVGlfDBNbs/oIvr1/QneluBZsA2vRfS+ddhl+1DEPLdJyT1wzRolKUas1YMiGsdbV1tXsi9lWaWsHvsN3udoa/62npdrajG/bX40vkPhenO2dJNXSn29ahJb4/AlhYcKNeQZVvWCIwGzYsOHBiYkJ/L6HRai2DmeLT4IBpIbNuUymaBbkz9Olk++amrSXGNSK+47Q9Iy3I5wYkU+zTYGLvfFTXlxm92/lUqukSyNd3t+u5cWqDc9+mqAx1aIMMJbAH3dKcUCkjC/GTEl3++cT8OwsvvXi6+4FEbnnMuPD3ljBwIGZsnTLUastnWECs2XLlu9OTU29XKvrVavYlwZEOJ3gyM+RlIJ+rjJkfDEtkC7RM8YM/WFUvkXge3EG2iDev47E9/Ix93xBMVH7EFuBWm2TDQ3at7S0XFWra1X7gTqJfDGQbRIuIb9RxhQn3JTogEQRkTGDH0ZUFLjuhVF4bha/ibdC1MT7771z4FVKn+VsBV9MQwhMMBjc+eSTT15Tixui9h+phr/wySTV1gkFYCqFP+6rsgt+nvYX/DeMz6NaHjw6B78cW0Af19HVA5IHv4n3BnsS3u4oPV+rCEyt7r/haYeXXXbZ95LJ5D3U18EyX5kV47bh719HkzKIBAtzZ9oPk/Kpi8loc34hLcFtrxA08XY4wNa7Cn9cALjGN6fJz2KFkHXDCAws35Dv1+I6GF7+1S4lE1XCRgQbTBE0pmLjPlEkbG3kg/A/x+ZJfE/uzl4QHfjd+85yJCHo0JYR7nQ6TbEFNQOmEJizzjrrqaNHj/6e+jpYdThUR51MpmSSJuGPir6CTcKN6g/DfscHhinC0jaQOnoIxgW42L2obyYmjigtLOBvS4thCoFhdHZ2fom6SThWD9I3eWW4uTuJ3pgq44sh6BkzrzjgZwV8MUaFqpm4HKZo4t3dS3KA2sfc8/B2l74jU8y8Taplvo5pBGbz5s27k8nkf1JeAzM0+x6/CJcE8MVgjKhJ+K/SfhjP88UY0R9mJiXB9wl8L3anE4DA97LFuQR/69VfH+VwOEy7TaplRb1pBIbR19d3LWW1NfYBZNe0pdBbOohgg6MER52wce9LndqjmKqzfDFue2USFgmO1XX2rwbRjuu4dIMCf++pvPjSrFZMLSOIphKYgYGB49TV1pj9OtodAF8gaEw1LSpwPIm/hShUbV1LK4aqWtrX2U1SLf1h9wKscFRuhTidTtOVD9R6PqYSGMhWW8/NzZHZltjnA10aEEnC1keSSqarPja/EU+uQ6plqPq+I7P41dJuD8QHTyfpVPcBnY7dQpitAVWtUxPM9dtncblcW5JJAm8nQctIjw3gkmYaPZwgaEz1vOSBiPgnq6VW0Y4DC0nYSZBU5+6iObj+r5wx6LdX//mbzQ9T622bKQXmrLPOeioWi5Ec2kYRmr2mPQVtBO01J9IKJJCtGPamvyXZDgelZYe3y+UiN5uPLKXgM38cRve9ODxekDrxBcYNCnzaNoEyltlyYmqdmmBKgWGsWrVq+9zc3CT2uMxkxc4DaLEviwwFRxI0i1PIcfhSp7Z/7yUax65jYA1INvwlHHbPZ6wXqxQumhnTCszg4GCSqhiSIkzHtknrHPgLckECkozXV2U3/D69/DlQRhWemorBIxPV+zLycQbaIBVoRx+32yZCGI5n/p9ZHhjiq57VbAa4DyaH9evXC6Ojo7uxx2XbAmyzVRHTcF0rTYSdotqa8d/pQKbamsqEFxUFvn3gOMHIdNXSV3pmwaUsiwpWWoPNZjONwDR8FCmf7u7uH1CMi63k7Mad6xFhyIefV5JQAOIETcJnFAc8LXnJQtXPzcTh4CL+1tHd0kJSLd1nF+GivIxdJg7z8/NVj81eamZo8lXrqJbpBaatrU14/vnnD2CP6/PhLVBmRqve+a+0LMFKB74YjBK11/xD9thZisX/k6MEB9ezz7trAH3MVpsE3/cVduwyAcaw8swQssZO0yiHzazZhrkIgnChIAi/NXoeWhlduwmefveV6OO2yilY1+oHO2Jo2TV6GLrv+ibaeLk8feabYbRrNeqY9r6VIPfgn3EUevTHsGbvE+jjUhEMBu8IhUI3ZZK0TUowGJysrZxVSDgcflQQhAcA4BKj56KF/kMvQNfwfphcuR513Dm7GybiKehrwtvSND/1C7Sx8jnt6D5UgbG1dpKIS2DqGKzaR17Mj8kr4XD486FQyLTiomK8zaaRcDj8NQCgaT1PwMYn/gtsMv5WaSwloRVDug/vA9/+Z1DGKkT7wiSsGD+IMxjbXvTTNJLa+MQDYFfM34VOJRwOf9EK4gIWExim2udZRWRapkdJ3oqS3QkjcQR/iSxB66/vw5hSSc48tAccUvUOdXtnHyhu/PSC/oPPQvfR/ejjEvK1cDj8v0ZPQiuWERhYFhm2Eu41eh5aOX3PwyTjTsn2qsPW7qOvgOv4CNqciuFNJ2Bg8kj1AxGVBKyJPEoyLhFP7dix41tGT0IPlhIYWBaZ28zs2MqlaWEKuo/sJRl7Il6dVdC8+5docynHmmMHwF7FdtHW1gmyCz+U3nL8KHQcQ9rC1YBgMHib0XPQixUFJhoMBklyYyjY+PgDZL6YVIW+mJZf3wveV15An1Mx2han4Jx9j1YmMg4HQB+N7yX0+H1W8r08dcMNN5A2ZKPAcgIDyyJzvVV8MYHZcVj7PH6EXbY74NiS/qQ+X/QpaP7jr9HnU46emWOwbuRF3T9H5XsZePlp6Bi1jvUSDodrep47FpYUmFAoNBsMBv/B6Hlo5XVP/wKaZ8bRx51SHBBL6dgqiWloefS/0eehldOHo+BJaS+nsLncoHTjJ9U5k3E488mH0Mcl5K5wOPyU0ZOoBEsKDCwr+u0AEDV6HlpwpeJw/gP/Ar55/F60wzraawZ2/S84FmbQ56AVl5SG9Yee1f4DA2tAQT6CxJlcggvuuwGaFqZRxyVkcfv27V8zehKVYlmBCYVCYtbhawmYyKze+zj6uDHFDmPz2qqV/c8Ynwy9auIgOEUNYfbmFlBaO9Gvv3L/Uxnnu4V4IBQKjRk9iUqxrMDAslf9XgBA7xlDBVvc7A2KzajsgHiZrZIvsgvsBNeuhLXHypSWOV3gGFyHfl2bLMHqKL7IE2Kpl2ghLC0wVvPFeJfm4QyC3BjZ7oDhEo2pbKkEtPzWON9LPqcPR8FbQuzsvStJqqXXRB7LON0txF3hcPhpoydRDZYWGFj2xfwIAP7d6HloZe3zv4GmOZx2jLksgANmE4W3Hs27fgaOWPUtB7BwymImw7cQNl8TyJ296Nd0xxfh9X/4Gfq4hBzevn379UZPolosLzChUEjcsWPHZQBgiZRMhyRC8IkHSMY+mpRAzsvwdcxMGBKWLseK44egbb5AMyqiRlKv370j4wezCGPhcPg8K/teVCwvMCrhcPh7Rs9BK72Ho+AjcDQmbQ5YiJ98akLT84+DDaEWiII1Yy+f9Gd7kx8Ufyv6dexSOuP/shC3h8Nhy4sL1JPABIPBnQDwitHz0Mq6535DMu6Y+KdeMY65SWh6YRfJdTAYOH4YOudyfCId+FsjyH7WzHK0CInt27ffZfQksKgbgQmFQgkrZTuuiTwG/hn8l9Qi2GEmmQb74hx0/fsNpvK95OOQJXhT9BEIxGbB5vODTCAwnqV5sqJTCoLB4HdCodBho+eBRd0IDCxvk/4XAMzncCiAXZFh8yP/AS2TR8Eu4m5hZibGof3BfzO1uKgwkTn7xccg4ME9r8cmS5nPln3GFvK9HA2Hw9uNngQmlmiZqQdBEIKCIDwLAJbo1sfhqASDwY9bsaCxFHVlwYAFq605nCyWrJYuR90JDCz7Y242eg4cjh6sFAXVQ10KTDgcPgwAO42eB4ejkcPBYNBS5d1aqUuBgT/1z0gYPQ8OpxzBYPBroVCoLtdq3Tl5cxEEYbMgCI8DQLPRc+FwinDTjh07vmr0JKioWwsGlq2Y54LBoKWaJHMaigfqWVyg3gUGlkXmZrbHNXoeHE4eiexZX3VN3QtMdm97u9Hz4HDy2BkOhy1T2lIpdS8wjGxthyWahHMag6xlXfc0hMCEQqEx7ovhmIh7w+GwdU7ar4KGEBj40xuj7k1SjulJWLmJt14aRmCyTcItU23NqU/qrVq6HA0jMGCxamtOXVJ31dLlaCiBgQZyrnFMyY/qNWO3GA0nMMFgkFkw/2P0PDgNx9j27dvvMHoStaauSwVKMTQ09CQAnGv0PDgNwWQ4HD4nW4TbUDScBaPCHb6cWhEMBv+hEcUFGlxgngKAummuzDEt0ezZXQ1JwwoMLGf4fi3TJ5vDISIcDv99KBSyzJEG2DS0wGQPtqI5BY3DAXguHA5b4kBAKhpaYGD5DXMbADTsG4ZDRzAYtPTB9RhwgVk+XJz7YjjYPB0Ohxt+XTW8wMCyL+Z6Xm3NwSQcDn+xkX0vKlxgeLU1B5+GqZYuBxeYLNkSgl8aPQ+O5ZltpGrpcjRsJm8xhoaGZgCgzeh5cCzLW3bs2NHQkaNcuAWTRzAY/L7Rc+BYlp1cXE6GC0we4XD4JgA4avQ8OJaD9xsqABeYPEKh0GIwGOR7aI4umOUbDof3Gz0Ps8F9MEXg1dYcHUxu3779jFAoxFMd8uAWTBHC4TA/6oSjlf/k4lIYLjBFCAaD9/ID2zgaELPlJpwCcIEpQigUSnBfDKccwWDwO41wgFqlcIEpwQ033MCsmJuMngfHtDyXjTpyisAFpgzZw8l5SwdOPq+Ew+G3cN9LabjAaCB7SDlvTMU5QTgc/mI4HObiUgYuMBrI7rEvN3oeHNNwe/aMLU4ZeB4Mh8Mhg1swHA6HDC4wHA6HDC4wHA6HDC4wHA6HDC4wHA6HDC4wHA6HDC4wHA6HDC4wHA6HDC4wHA6HDC4wHA6HDC4wHA6HDC4wHA6HDC4wHA6HDC4wHA6HDC4wHA6HDC4wHA6HDC4wHA6HDC4wHA6HDC4wHA6HDC4wHA6HDC4wHA6HDC4wHA6HDC4wHA6HDC4wHA6HDC4wHA6HjP8fAAD///hOEERgpesXAAAAAElFTkSuQmCC;" parent="NTQgwEyuaVes2y7K-TFk-1004" vertex="1">
          <mxGeometry x="11.159250000000002" y="8.420807453416149" width="32" height="32" as="geometry" />
        </mxCell>
        <mxCell id="NTQgwEyuaVes2y7K-TFk-1031" value="&lt;b style=&quot;color: rgb(0, 0, 0);&quot;&gt;GET /realms/{appRealmId}&lt;/b&gt;&lt;br style=&quot;color: rgb(0, 0, 0);&quot;&gt;&lt;br style=&quot;color: rgb(0, 0, 0);&quot;&gt;&lt;span style=&quot;color: rgb(0, 0, 0);&quot;&gt;return public jwt token&amp;nbsp;&lt;/span&gt;&lt;font color=&quot;#000000&quot;&gt;&lt;br&gt;&lt;/font&gt;" style="strokeColor=#dddddd;fillColor=#ffffff;shadow=1;strokeWidth=1;rounded=1;absoluteArcSize=1;arcSize=2;fontSize=11;fontColor=#9E9E9E;align=center;html=1;" parent="NTQgwEyuaVes2y7K-TFk-1004" vertex="1">
          <mxGeometry x="27.894928386461032" y="56.16" width="381.2716046015996" height="100" as="geometry" />
        </mxCell>
        <mxCell id="R5sGTcabp0JMVqq_2BZA-997" value="&lt;font color=&quot;#000000&quot;&gt;&lt;b&gt;POST /realms/{this.appRealmId}/protocol/openid-connect/token&lt;/b&gt;&lt;br&gt;&lt;br&gt;return access and refresh tokens&lt;br&gt;&lt;/font&gt;" style="strokeColor=#dddddd;fillColor=#ffffff;shadow=1;strokeWidth=1;rounded=1;absoluteArcSize=1;arcSize=2;fontSize=11;fontColor=#9E9E9E;align=center;html=1;" parent="NTQgwEyuaVes2y7K-TFk-1004" vertex="1">
          <mxGeometry x="27.894928386461032" y="200" width="381.2716046015996" height="109" as="geometry" />
        </mxCell>
        <mxCell id="R5sGTcabp0JMVqq_2BZA-1007" value="&lt;font color=&quot;#000000&quot;&gt;&lt;b&gt;PUT /admin/realms/{this.appRealmId}/users/{userId}/reset-password&lt;br&gt;&lt;br&gt;&lt;/b&gt;&lt;/font&gt;&lt;font color=&quot;#000000&quot;&gt;reset user password&lt;br&gt;&lt;/font&gt;" style="strokeColor=#dddddd;fillColor=#ffffff;shadow=1;strokeWidth=1;rounded=1;absoluteArcSize=1;arcSize=2;fontSize=11;fontColor=#9E9E9E;align=center;html=1;" parent="NTQgwEyuaVes2y7K-TFk-1004" vertex="1">
          <mxGeometry x="30.894928386461032" y="350" width="381.2716046015996" height="109" as="geometry" />
        </mxCell>
        <mxCell id="NTQgwEyuaVes2y7K-TFk-1050" value="&lt;div style=&quot;background-color: rgb(255, 255, 254); line-height: 18px;&quot;&gt;&lt;div style=&quot;&quot;&gt;&lt;span style=&quot;font-size: 11px; text-align: center; background-color: rgb(248, 249, 250);&quot;&gt;&lt;font color=&quot;#1a1a1a&quot; style=&quot;font-size: 11px&quot;&gt;PUT /api/auth/&lt;/font&gt;&lt;/span&gt;&lt;font color=&quot;#1a1a1a&quot;&gt;changePassword&lt;/font&gt;&lt;br style=&quot;font-size: 11px&quot;&gt;&lt;/div&gt;&lt;div style=&quot;font-size: 11px; color: rgb(0, 0, 0);&quot;&gt;&lt;div style=&quot;font-size: 12px; line-height: 18px;&quot;&gt;{ &lt;span style=&quot;color: #a31515;&quot;&gt;&quot;currentPassword&quot;&lt;/span&gt;: &lt;span style=&quot;color: #0451a5;&quot;&gt;&quot;1111&quot;&lt;/span&gt;, &lt;span style=&quot;color: #a31515;&quot;&gt;&quot;newPassword&quot;&lt;/span&gt;: &lt;span style=&quot;color: #0451a5;&quot;&gt;&quot;11111&quot;&lt;/span&gt; }&lt;/div&gt;&lt;/div&gt;&lt;/div&gt;" style="text;html=1;align=left;verticalAlign=middle;resizable=0;points=[];autosize=1;fontSize=11;" parent="1" vertex="1">
          <mxGeometry x="290" y="111" width="300" height="40" as="geometry" />
        </mxCell>
        <mxCell id="xHh3PQGLaYCQFTQaD9R0-1029" value="" style="shape=image;imageAspect=0;aspect=fixed;verticalLabelPosition=bottom;verticalAlign=top;fontColor=#1A1A1A;image=data:image/png,iVBORw0KGgoAAAANSUhEUgAAAO4AAAAgCAYAAAAVDETmAAAACXBIWXMAAAsTAAALEwEAmpwYAAAAAXNSR0IArs4c6QAAAARnQU1BAACxjwv8YQUAAA8USURBVHgB7VwJmBTFGf2rZ4dd1CgKXngt8SImKrqieBCNGgEVRAXBA88IxANE4hEIH0RRvFBREeKFihIQDzw+RaO4HomCgBpBUSO3RA65FNid6enOe1NVMz2zM+yM7gJL+n3fT1VXV9V0V9Wr/6heREKECBEiRIgQIUKECBEiRIgQIUKE2ExQxVRe5o/cLrZmTftIInGa43sVjutu67iJauXGl5Yk3A/FdZ7Y/sDhcyTE/xX8nhXbSJW7oyTKlMR+WK0mfv6jhKhXFERcEnbD+h/PcxLeYCeRaB5xE4IU4grIq1Neozzixt9wxL2m9OBHv5AQmxS+71+MZJJSarXUM/yurXcT8Xoie6oo/0jxsZaU4kOgSM0RR02WuBqnnv/oIwlR56iVuF+uv3uPbVTiEXG99pqklrA6jWSU6TzK4k7c7RdpM3akhNhkAHHJmhYg7nypJ/gVFVHZX/qK5w8EWZtstLIinZ3HJVLWX417f5VsJmBYmiPpBZmDsfm7bAXYKHEX+MN2VBui/1AJt8Jq1AzSJstqEtekvkr416vjxt0lRQIDPQjJKZChGOjXpR6B39obCTcYjkUP/N5mW2A/F/VNXP/iVk1knTMW2dMLbpRcYXge1zkJ2nduIU3wGo2QNM8qTkBW4N02SJFAfxOQnANZDzkUffynyPYnIRlsLi9C+3mymVGy0btV0duUB1824WlCeiSozpO0KlVmxUulKu4riTt3+q9fMlO1GzNFCgQGaUckN5nLWyAFExdt2yBpCfEwuE/mqVOO5ARzOQlCc88uxPaQrWJHrmskNe0GeRq5U+UXULSHHMXSjTdaB1f3k3+BtxjzEu9Nv8chbdTYfy+T2rETJJsc/LFVmL/3kF5T5Ob0lUlX8KmkeOwMaWvyRcWF6gt5ibuwangn5SZ6av81Q5Mmr1WSvEhdEjhT2yoXY+w6IjGKfx+uDla1znIKP0CehxwLeUKKQ2PIGGYwwasxuS/lqPNXyIWQlZDxkBchnSFlkKkSIjf2VQPF806VRhim62BEtTyssHZj7xF5+Slk/BZS3YjzepwUh1VGopA9IWdA2nKTxvx+XUgHqDcI9d9Bdhby38lWgLy7x6J1d7wLQrZ1XC9JxqSGdePaPA4Eo1ImcirvgazoNhbRxK12qP/OVN0enSRFAANdikGuLrINycegWDnkSbS/KLtPJEtE7+hP4X4PU85F4ePazdMvbqlCN57Nhvoylf3urcrFc2Zh691WotuJv/+h4DD2ZhREzjhXSiqOER9rQLA+LFRpmSSDVd98LnLjBTrP1aZKOqoJ016Rjb8HAl/yX3N5Gd7nMZRhISUtpcmiSfwgyq809Q9Bgh8Rplwzb0JG4r5n7rPdaZA1oq04tv8zZDtTlxvAxZDWpg7XzquB5+kuaUvs15BWoq0ztqcFMDrbhDeW45mQDqLX2xzT79RAnb2Q9DGXfzP90vpjW5gqMgr110oO5NS4i9cOP0DcWNs0OQNkzRA38z5JG8f4xpXRtkpfxxwSqGDi4oUmIilH+hgefJQhHNs3g/DeDsJopiBMIjIbMg71RkCqUJe7+rWQrsj3QdmaQNedzSASI8xvHRPIn2P9F+R/gaQv5GzIwdTgSKdDbkGd90ydwWagv0VZ58DzjzPPxkE/2ZIe5ZycwyHjUTZcGgp85woEo7aVarzGmlWilk0RHAeK8nxxOnVPVlk/drQsHz1c4glfquAqNR80TJqedT6OJJZo0qb6StyAf18p9hEMCadgDDkHR0OOSHbn+yQs3aKgEuoE6Yl7RxpC0YX6E2Qh5FYIfeirRK8n9kPzYYdA+25oSzL+McejvAA5IHBNcvagH2zjI8j/xrzjPoF6J0J6494opFebNbGHeS7iWPNewXdg/Q6oW+OI1ZEcUF7ssJQ/66VN46BY8iov7d+Kqwxpjba1Uu2084cMyflbecAXP8K8GBE11xTulANE707bQo6E3IsXtIM83qQ0mztk9ft7kzI4McPkdwr0nZx8algktO9uNr+DF5KmkHaiF8+Fpu1c066D0dps20J0IITlnKx9TXmZeR6WfyINCZ7qKFSm3JgdlRSlHIlSie6qp8j/araUlpRINBqRMkjpLrvrtksCrqrevlr7XSv2lp8AjOH2SH5pLm0QkUTkfL0mmqCXm3KuoT4FdHsChJsyg6h0o+wDkzTn56jPdTAMcgXkn6bsMPu7aMPN4GXRpKU7djfkeshM0XyjlXBhjn7ZxyOiYy5Pm7Jy8zs1kJtMnlue1qQB8RLGVE4kfVt9bqvTtJa1mpYS0RrXdRpLk1U7S92Az3yu6IDB8ZAFpvwuRiOxO/Hc0JLyMtsI97ZB0tVcjqvF9B0oescjLhW9CZCA9JlppTxszDkGztgPd/DWpj43kkigr+NNeiiEphEtgHekgcDvWNFM4l5LSRjSkiKOkxQVLRXVfK9kvcjKZVIacaQU5Y1Qr3RPo2yWfpvVo4L1pFpJ4eiOsb7PWCvc8HaFUPvea+43M+k3kGmYVy5+zl0/yGcF9M8NoC3aXQcZgnyFaM1MDDCbeBB9UW8ALUHRG/NsU36CSbuIJhzXRTvU6w+5E8J+3zB1bsnR73DUuRzyMIRWhF0jp+eom5u4JYlEGTVpSrt6XiqinNKwnta2FK1pHWMWW9I66ZRk3qAaS93gVbwYTU0eDbwrekcjSEy7kz9r0qPN0QLBQd7e5J/J17nxpSzBJ+A3xtAEh1C7Wq3OPtujjBHSWabsyMDvEJ9mXVtiT8vnS2+RKEGUHiZx2ke15MU/zbB3RrBHYX1EFi8AaZU0ioC0pY2kxBJ39feZ/fnJvg6QwkEr6WrRmojWTBXkRozhZHPfumA0fWeR5Eh/wP17g37qRjAR9RbZC2PuvmAuuZ6yFc7HgboxSc+/Pb5qZ9LZuD89q+1zJqWZsn/Wvcqsa/vhSmMjGcitcV1P2SBU6qw2eIbrpn1fRRMqRVCjZWORAJGtuSx1hewzuGBk0fopj5uUpnQPk7/SpO9jQGdLfnAH38/kO2MhrLEiOvBlNbX1X+ziOMWkDFpQI/Q26XHGRz/B3H9OGhS8SErTkrRcMfa63AzT2lUS3bBOotS00LiNd2uOGJQJnyxdXLNLVcsxZCYYL+CGSVOU8YSm1GCB+zQ76T5xo/yVaJK/jTGfA9mngP5X5ihbYVLOW/azVmVd24ictbJs/Vxfr8UC+aZZ97ysa8uY3Mo1VyGDTEoMMZN+rBfQvmlJHvtkaFqTd1Wmjxuv06Ov7BeMB/L6uB8hf0za28j+DtIFeWpga7I+KrXDkpOrbn6eOnbDYDCMAZdD8TsHid6laarTp6EZX27EHoO8Jg0JJdGFyWgxl09y5DnERgPvtqeu40REdbsUPi+CVazTwijUeKwmcZOfRcpiKRxvMaqc76axXm7D2N8hOuJLjTcUcqBo3/JK2TiOyFFWYVIeHa2Q4rDEpFwPZbTWAvdampTri+tnP/mJyE1cLwbx0x9ZJOynjGn/VtkIcoqcThZZI5lkrvZkE4MEJXGpARllprnBXeylWtotF01YTvwMDHw3ewMT0cSUEzbS96mpz1V8nimjORxD/WmizbtLRPtmLF8oDQhq4rR5/tmHrUSAaidN3uS3yFgkSHc3scPtMSy9rktSOmNBzYOBgvWSEVXmmnXcOvlDFIwviWADfQNNpP4zlP8WaUfRG2ZtOBn1GWwaZq4Z07AnBJVmHqUIMLBEs56nEvejbX/RX2zR777K1HmWrh7u1TVxvaQoLzM4ZX1akHqNeNEpkvDXilfaWFx/b5DzCOi+khoa2Pq8mx7UsveLPhO7xpTRn1m5sUYMWgFs9wDkHOQZOSTZSUAGRHhWyL9+2d3Ur0YdalGactYHftOk9MFJ/D+Y68nSIOFMwcR30VlJa949y/Xt5VBMi0ww1i7yaqzVMbdnkTbZ7Gv5boc6iarzmARjz7HmGe0wHp2IJozVmG8U0A192htFuzY8OjLh8KSpO0CKBOMuxs9mRJvzzhMGHgtyl+NgMC5yg/xM5DGVoWExAdnfJsMM+s6RSB/ZpfVLav8+GV6r//LQPSS+eqAk4pdKzCtNaWCbulHZlDCEIuF4hmyDUhMLbDsSbemzcpccYcSCu+clqBP80zV+fUXi8miJfsw0U26Jav2ZQhbSlgcHMQNPddEWnvFzqXmb7arvj4Ky+qBS3+aXGVFU2CZSk7SEL0+rysq6DM5xfjk/1LAnmTKSkRvv/QW0f1B0AIr92D+a+ED0N8nFmPQpoF1frB9abtzIGbTi+uOmQPetdzAY9lORV+MqE0m2qeNFZjjedqepNiOWpmM/gYft+BfG/a/wXxw5Ub6cOwHk3TmDvMUpXUbU6F/MyyqjuTs/qy53xkqTX551j0cDNkDBgct18B9sHwwo8MMLHimcJdo85jeu/JrlIQz8W1l9vBPo4ys74YxEYwIZvGLEm5r+Y2mImDjjVel6+FvQtCelC8HSprvoLIJTyYAVydwYS6pRnvlmFN7fUOuHJyZG0cJcrq6lLsPWF6A+NSXjC9w4F9EUDVQbLeZ8nx9yZJm+CZT1QtlNkj6u+9J+dWXAOIZ9ngVZj8Bg2CCp+VxD0ec9os+T+YNLcmwEMwP9Zr8nz5UfMX2tr9G/5MC62VcNUb472PyJnjglO850Dhl+bJajnRf+Q/e0ksVL3pcqfm1josy+10KNvm2+hKg31OdfB/nd25TDmqqERt1HK16Qc8JUfRzU+wwsy4U6rhrN+50NtIDTST0zvZAjmnoFhomfKlIp8AThJozXYGlgyPcBhvZzGYSSRjEnGuleKGkJ1bPfJ9Jk91tT2pY+blWZhGi4UOM/nC9l0W4SwTknt3uaxNfCfX/wZtgScNtKVH7SUhtHnF5bAmm3FuQcacdPzIe2rYSJXKn8yO3qoDsL+iuMDPTrdzsCWK+AvJWIMFdKLSZPiC0fauyHU6XEOwok/CJJxsVzEYZ7ASospombCw5MViWnq/HTCzmGC1EgNku4N0T9YFP91zV+51ZNpDTSRVzpj12+ZY0KOigF3xPR+VjJA2rStO9lC4L5bpx+L2MPz2G8JkgDQ0jcED8L/gWH7weL6kQEpnYWflPrwJR2E59JpOwjNfGDov+3ihAhQoQIESJEiBAhQoQIESJEiBAhQmzh+B+AMIJo4ZjEXwAAAABJRU5ErkJggg==;rotation=0;" parent="1" vertex="1">
          <mxGeometry x="1320" y="19" width="163.63" height="22" as="geometry" />
        </mxCell>
        <mxCell id="DmBbYhYIXKUU_peMQ1FZ-1003" style="edgeStyle=orthogonalEdgeStyle;rounded=0;orthogonalLoop=1;jettySize=auto;html=1;entryX=1;entryY=0.25;entryDx=0;entryDy=0;fontColor=#1A1A1A;" parent="1" source="DmBbYhYIXKUU_peMQ1FZ-1000" target="997" edge="1">
          <mxGeometry relative="1" as="geometry">
            <Array as="points">
              <mxPoint x="600" y="281" />
              <mxPoint x="600" y="281" />
            </Array>
          </mxGeometry>
        </mxCell>
        <mxCell id="5wR4nQJtg8s1QRbnCOT5-1033" value="404 Not Found" style="text;html=1;align=center;verticalAlign=middle;resizable=0;points=[];autosize=1;fillColor=default;fontColor=#FF1900;" parent="1" vertex="1">
          <mxGeometry x="370" y="460" width="90" height="20" as="geometry" />
        </mxCell>
        <mxCell id="5wR4nQJtg8s1QRbnCOT5-1053" style="edgeStyle=orthogonalEdgeStyle;rounded=0;orthogonalLoop=1;jettySize=auto;html=1;entryX=1.022;entryY=0.816;entryDx=0;entryDy=0;entryPerimeter=0;fontColor=#FF1900;" parent="1" target="997" edge="1">
          <mxGeometry relative="1" as="geometry">
            <mxPoint x="650" y="748.9000000000001" as="sourcePoint" />
          </mxGeometry>
        </mxCell>
        <mxCell id="5wR4nQJtg8s1QRbnCOT5-1056" value="200 OK" style="text;html=1;align=center;verticalAlign=middle;resizable=0;points=[];autosize=1;fillColor=default;fontColor=#336600;" parent="1" vertex="1">
          <mxGeometry x="400" y="720" width="60" height="20" as="geometry" />
        </mxCell>
        <mxCell id="L5WZl7pAFnGiY_Ook2da-997" value="&lt;font color=&quot;#ff1900&quot;&gt;401 Unauthorized&lt;/font&gt;" style="text;html=1;align=center;verticalAlign=middle;resizable=0;points=[];autosize=1;fillColor=default;fontColor=#336600;" parent="1" vertex="1">
          <mxGeometry x="350" y="250" width="110" height="20" as="geometry" />
        </mxCell>
        <mxCell id="R5sGTcabp0JMVqq_2BZA-1002" style="edgeStyle=orthogonalEdgeStyle;rounded=0;orthogonalLoop=1;jettySize=auto;html=1;" parent="1" source="R5sGTcabp0JMVqq_2BZA-1000" target="997" edge="1">
          <mxGeometry relative="1" as="geometry">
            <mxPoint x="250" y="496.53999999999996" as="targetPoint" />
          </mxGeometry>
        </mxCell>
        <mxCell id="R5sGTcabp0JMVqq_2BZA-1009" style="edgeStyle=orthogonalEdgeStyle;rounded=0;orthogonalLoop=1;jettySize=auto;html=1;entryX=0;entryY=0.25;entryDx=0;entryDy=0;" parent="1" source="991" target="NTQgwEyuaVes2y7K-TFk-1031" edge="1">
          <mxGeometry relative="1" as="geometry">
            <Array as="points">
              <mxPoint x="1006" y="150" />
              <mxPoint x="1006" y="161" />
            </Array>
          </mxGeometry>
        </mxCell>
        <mxCell id="R5sGTcabp0JMVqq_2BZA-1010" style="edgeStyle=orthogonalEdgeStyle;rounded=0;orthogonalLoop=1;jettySize=auto;html=1;entryX=1;entryY=0.75;entryDx=0;entryDy=0;" parent="1" source="NTQgwEyuaVes2y7K-TFk-1031" target="991" edge="1">
          <mxGeometry relative="1" as="geometry" />
        </mxCell>
        <mxCell id="R5sGTcabp0JMVqq_2BZA-1011" style="edgeStyle=orthogonalEdgeStyle;rounded=0;orthogonalLoop=1;jettySize=auto;html=1;entryX=0;entryY=0.25;entryDx=0;entryDy=0;" parent="1" source="L5WZl7pAFnGiY_Ook2da-998" target="R5sGTcabp0JMVqq_2BZA-997" edge="1">
          <mxGeometry relative="1" as="geometry">
            <Array as="points">
              <mxPoint x="1006" y="370" />
              <mxPoint x="1006" y="307" />
            </Array>
          </mxGeometry>
        </mxCell>
        <mxCell id="R5sGTcabp0JMVqq_2BZA-1012" style="edgeStyle=orthogonalEdgeStyle;rounded=0;orthogonalLoop=1;jettySize=auto;html=1;entryX=1;entryY=0.75;entryDx=0;entryDy=0;" parent="1" source="R5sGTcabp0JMVqq_2BZA-997" target="L5WZl7pAFnGiY_Ook2da-998" edge="1">
          <mxGeometry relative="1" as="geometry">
            <Array as="points">
              <mxPoint x="1030" y="350" />
              <mxPoint x="1030" y="400" />
            </Array>
          </mxGeometry>
        </mxCell>
        <mxCell id="R5sGTcabp0JMVqq_2BZA-1013" style="edgeStyle=orthogonalEdgeStyle;rounded=0;orthogonalLoop=1;jettySize=auto;html=1;entryX=0;entryY=0.25;entryDx=0;entryDy=0;" parent="1" source="R5sGTcabp0JMVqq_2BZA-1004" target="R5sGTcabp0JMVqq_2BZA-1007" edge="1">
          <mxGeometry relative="1" as="geometry">
            <Array as="points">
              <mxPoint x="1007" y="580" />
              <mxPoint x="1007" y="457" />
            </Array>
          </mxGeometry>
        </mxCell>
        <mxCell id="R5sGTcabp0JMVqq_2BZA-1014" style="edgeStyle=orthogonalEdgeStyle;rounded=0;orthogonalLoop=1;jettySize=auto;html=1;entryX=1;entryY=0.75;entryDx=0;entryDy=0;" parent="1" source="R5sGTcabp0JMVqq_2BZA-1007" target="R5sGTcabp0JMVqq_2BZA-1004" edge="1">
          <mxGeometry relative="1" as="geometry">
            <Array as="points">
              <mxPoint x="1030" y="485" />
              <mxPoint x="1030" y="610" />
            </Array>
          </mxGeometry>
        </mxCell>
      </root>
    </mxGraphModel>
  </diagram>
</mxfile>
